<mxfile host="app.diagrams.net" agent="Mozilla/5.0 (Windows NT 10.0; Win64; x64) AppleWebKit/537.36 (KHTML, like Gecko) Chrome/130.0.0.0 Safari/537.36" version="24.8.3" pages="2">
  <diagram name="Page-1" id="QVB3WvhjV1omLDYEVIY_">
    <mxGraphModel dx="2717" dy="1897" grid="1" gridSize="10" guides="1" tooltips="1" connect="1" arrows="1" fold="1" page="1" pageScale="1" pageWidth="850" pageHeight="1100" math="0" shadow="0">
      <root>
        <mxCell id="0" />
        <mxCell id="1" parent="0" />
        <UserObject label="" plantUmlData="{&quot;data&quot;:&quot;@startuml\n\n[*] --&gt; Green\n\nGreen --&gt; Yellow : Timeout (Green Light Duration)\nYellow --&gt; Red : Timeout (Yellow Light Duration)\nRed --&gt; Green : Timeout (Red Light Duration)\n\nstate Green {\n    [*] --&gt; GreenState\n    GreenState : Vehicles are allowed to move\n}\n\nstate Yellow {\n    [*] --&gt; YellowState\n    YellowState : Caution, prepare to stop before red light\n}\n\nstate Red {\n    [*] --&gt; RedState\n    RedState : Stop, vehicles from road nyarutarama to sonatube and nyarutarama to town must wait\n}\n\nstate BlinkingRed {\n    [*] --&gt; BlinkingRedState\n    BlinkingRedState : Malfunctioning or special condition (flashing red) or emergency\n}\n\nGreen --&gt; GreenState\nYellow --&gt; YellowState\nRed --&gt; RedState\nBlinkingRed --&gt; BlinkingRedState\n\n@enduml\n&quot;,&quot;format&quot;:&quot;svg&quot;}" id="Pkb6xFHebeYqyl7TbQrM-2">
          <mxCell style="shape=image;noLabel=1;verticalAlign=top;aspect=fixed;imageAspect=0;image=data:image/svg+xml,PD94bWwgdmVyc2lvbj0iMS4wIiBlbmNvZGluZz0idXMtYXNjaWkiIHN0YW5kYWxvbmU9Im5vIj8+PHN2ZyB4bWxucz0iaHR0cDovL3d3dy53My5vcmcvMjAwMC9zdmciIHhtbG5zOnhsaW5rPSJodHRwOi8vd3d3LnczLm9yZy8xOTk5L3hsaW5rIiBjb250ZW50U3R5bGVUeXBlPSJ0ZXh0L2NzcyIgaGVpZ2h0PSI2ODRweCIgcHJlc2VydmVBc3BlY3RSYXRpbz0ibm9uZSIgc3R5bGU9IndpZHRoOjE0MzBweDtoZWlnaHQ6Njg0cHg7YmFja2dyb3VuZDojRkZGRkZGOyIgdmVyc2lvbj0iMS4xIiB2aWV3Qm94PSIwIDAgMTQzMCA2ODQiIHdpZHRoPSIxNDMwcHgiIHpvb21BbmRQYW49Im1hZ25pZnkiPjxkZWZzLz48Zz48IS0tY2x1c3RlciBHcmVlbi0tPjxnIGlkPSJjbHVzdGVyX0dyZWVuIj48cGF0aCBkPSJNMTkuNSwxMjMgTDI1NC41LDEyMyBBMTIuNSwxMi41IDAgMCAxIDI2NywxMzUuNSBMMjY3LDE0Mi45ODQ0IEw3LDE0Mi45ODQ0IEw3LDEzNS41IEExMi41LDEyLjUgMCAwIDEgMTkuNSwxMjMgIiBmaWxsPSIjRjFGMUYxIiBzdHlsZT0ic3Ryb2tlOiNGMUYxRjE7c3Ryb2tlLXdpZHRoOjEuMDsiLz48cmVjdCBmaWxsPSJub25lIiBoZWlnaHQ9IjI2MyIgcng9IjEyLjUiIHJ5PSIxMi41IiBzdHlsZT0ic3Ryb2tlOiMxODE4MTg7c3Ryb2tlLXdpZHRoOjAuNTsiIHdpZHRoPSIyNjAiIHg9IjciIHk9IjEyMyIvPjxsaW5lIHN0eWxlPSJzdHJva2U6IzE4MTgxODtzdHJva2Utd2lkdGg6MC41OyIgeDE9IjciIHgyPSIyNjciIHkxPSIxNDIuOTg0NCIgeTI9IjE0Mi45ODQ0Ii8+PHRleHQgZmlsbD0iIzAwMDAwMCIgZm9udC1mYW1pbHk9InNhbnMtc2VyaWYiIGZvbnQtc2l6ZT0iMTQiIGxlbmd0aEFkanVzdD0ic3BhY2luZyIgdGV4dExlbmd0aD0iMzUiIHg9IjExOS41IiB5PSIxNDAuMjM0NCI+R3JlZW48L3RleHQ+PC9nPjwhLS1jbHVzdGVyIFllbGxvdy0tPjxnIGlkPSJjbHVzdGVyX1llbGxvdyI+PHBhdGggZD0iTTMxOS41LDI4NiBMNjQyLjUsMjg2IEExMi41LDEyLjUgMCAwIDEgNjU1LDI5OC41IEw2NTUsMzA1Ljk4NDQgTDMwNywzMDUuOTg0NCBMMzA3LDI5OC41IEExMi41LDEyLjUgMCAwIDEgMzE5LjUsMjg2ICIgZmlsbD0iI0YxRjFGMSIgc3R5bGU9InN0cm9rZTojRjFGMUYxO3N0cm9rZS13aWR0aDoxLjA7Ii8+PHJlY3QgZmlsbD0ibm9uZSIgaGVpZ2h0PSIyNjMiIHJ4PSIxMi41IiByeT0iMTIuNSIgc3R5bGU9InN0cm9rZTojMTgxODE4O3N0cm9rZS13aWR0aDowLjU7IiB3aWR0aD0iMzQ4IiB4PSIzMDciIHk9IjI4NiIvPjxsaW5lIHN0eWxlPSJzdHJva2U6IzE4MTgxODtzdHJva2Utd2lkdGg6MC41OyIgeDE9IjMwNyIgeDI9IjY1NSIgeTE9IjMwNS45ODQ0IiB5Mj0iMzA1Ljk4NDQiLz48dGV4dCBmaWxsPSIjMDAwMDAwIiBmb250LWZhbWlseT0ic2Fucy1zZXJpZiIgZm9udC1zaXplPSIxNCIgbGVuZ3RoQWRqdXN0PSJzcGFjaW5nIiB0ZXh0TGVuZ3RoPSI0MyIgeD0iNDU5LjUiIHk9IjMwMy4yMzQ0Ij5ZZWxsb3c8L3RleHQ+PC9nPjwhLS1jbHVzdGVyIFJlZC0tPjxnIGlkPSJjbHVzdGVyX1JlZCI+PHBhdGggZD0iTTgxMS41LDQ0OSBMMTQwNC41LDQ0OSBBMTIuNSwxMi41IDAgMCAxIDE0MTcsNDYxLjUgTDE0MTcsNDY4Ljk4NDQgTDc5OSw0NjguOTg0NCBMNzk5LDQ2MS41IEExMi41LDEyLjUgMCAwIDEgODExLjUsNDQ5ICIgZmlsbD0iI0YxRjFGMSIgc3R5bGU9InN0cm9rZTojRjFGMUYxO3N0cm9rZS13aWR0aDoxLjA7Ii8+PHJlY3QgZmlsbD0ibm9uZSIgaGVpZ2h0PSIyMjkiIHJ4PSIxMi41IiByeT0iMTIuNSIgc3R5bGU9InN0cm9rZTojMTgxODE4O3N0cm9rZS13aWR0aDowLjU7IiB3aWR0aD0iNjE4IiB4PSI3OTkiIHk9IjQ0OSIvPjxsaW5lIHN0eWxlPSJzdHJva2U6IzE4MTgxODtzdHJva2Utd2lkdGg6MC41OyIgeDE9Ijc5OSIgeDI9IjE0MTciIHkxPSI0NjguOTg0NCIgeTI9IjQ2OC45ODQ0Ii8+PHRleHQgZmlsbD0iIzAwMDAwMCIgZm9udC1mYW1pbHk9InNhbnMtc2VyaWYiIGZvbnQtc2l6ZT0iMTQiIGxlbmd0aEFkanVzdD0ic3BhY2luZyIgdGV4dExlbmd0aD0iMjEiIHg9IjEwOTcuNSIgeT0iNDY2LjIzNDQiPlJlZDwvdGV4dD48L2c+PCEtLWNsdXN0ZXIgQmxpbmtpbmdSZWQtLT48ZyBpZD0iY2x1c3Rlcl9CbGlua2luZ1JlZCI+PHBhdGggZD0iTTYyOS41LDcgTDEwOTQuNSw3IEExMi41LDEyLjUgMCAwIDEgMTEwNywxOS41IEwxMTA3LDI2Ljk4NDQgTDYxNywyNi45ODQ0IEw2MTcsMTkuNSBBMTIuNSwxMi41IDAgMCAxIDYyOS41LDcgIiBmaWxsPSIjRjFGMUYxIiBzdHlsZT0ic3Ryb2tlOiNGMUYxRjE7c3Ryb2tlLXdpZHRoOjEuMDsiLz48cmVjdCBmaWxsPSJub25lIiBoZWlnaHQ9IjIxNiIgcng9IjEyLjUiIHJ5PSIxMi41IiBzdHlsZT0ic3Ryb2tlOiMxODE4MTg7c3Ryb2tlLXdpZHRoOjAuNTsiIHdpZHRoPSI0OTAiIHg9IjYxNyIgeT0iNyIvPjxsaW5lIHN0eWxlPSJzdHJva2U6IzE4MTgxODtzdHJva2Utd2lkdGg6MC41OyIgeDE9IjYxNyIgeDI9IjExMDciIHkxPSIyNi45ODQ0IiB5Mj0iMjYuOTg0NCIvPjx0ZXh0IGZpbGw9IiMwMDAwMDAiIGZvbnQtZmFtaWx5PSJzYW5zLXNlcmlmIiBmb250LXNpemU9IjE0IiBsZW5ndGhBZGp1c3Q9InNwYWNpbmciIHRleHRMZW5ndGg9Ijc3IiB4PSI4MjMuNSIgeT0iMjQuMjM0NCI+QmxpbmtpbmdSZWQ8L3RleHQ+PC9nPjxlbGxpcHNlIGN4PSIxMzMiIGN5PSIxNzQiIGZpbGw9IiMyMjIyMjIiIHJ4PSIxMCIgcnk9IjEwIiBzdHlsZT0ic3Ryb2tlOiMyMjIyMjI7c3Ryb2tlLXdpZHRoOjEuMDsiLz48ZyBpZD0iR3JlZW4uR3JlZW5TdGF0ZSI+PHJlY3QgZmlsbD0iI0YxRjFGMSIgaGVpZ2h0PSI1MCIgcng9IjEyLjUiIHJ5PSIxMi41IiBzdHlsZT0ic3Ryb2tlOiMxODE4MTg7c3Ryb2tlLXdpZHRoOjAuNTsiIHdpZHRoPSIyMDQiIHg9IjMxIiB5PSIzMTIiLz48bGluZSBzdHlsZT0ic3Ryb2tlOiMxODE4MTg7c3Ryb2tlLXdpZHRoOjAuNTsiIHgxPSIzMSIgeDI9IjIzNSIgeTE9IjMzNi45ODQ0IiB5Mj0iMzM2Ljk4NDQiLz48dGV4dCBmaWxsPSIjMDAwMDAwIiBmb250LWZhbWlseT0ic2Fucy1zZXJpZiIgZm9udC1zaXplPSIxNCIgbGVuZ3RoQWRqdXN0PSJzcGFjaW5nIiB0ZXh0TGVuZ3RoPSI3MCIgeD0iOTgiIHk9IjMzMC4yMzQ0Ij5HcmVlblN0YXRlPC90ZXh0Pjx0ZXh0IGZpbGw9IiMwMDAwMDAiIGZvbnQtZmFtaWx5PSJzYW5zLXNlcmlmIiBmb250LXNpemU9IjEyIiBsZW5ndGhBZGp1c3Q9InNwYWNpbmciIHRleHRMZW5ndGg9IjE4NCIgeD0iMzYiIHk9IjM1My4zMjgxIj5WZWhpY2xlcyBhcmUgYWxsb3dlZCB0byBtb3ZlPC90ZXh0PjwvZz48ZWxsaXBzZSBjeD0iNDc3IiBjeT0iMzM3IiBmaWxsPSIjMjIyMjIyIiByeD0iMTAiIHJ5PSIxMCIgc3R5bGU9InN0cm9rZTojMjIyMjIyO3N0cm9rZS13aWR0aDoxLjA7Ii8+PGcgaWQ9IlllbGxvdy5ZZWxsb3dTdGF0ZSI+PHJlY3QgZmlsbD0iI0YxRjFGMSIgaGVpZ2h0PSI1MCIgcng9IjEyLjUiIHJ5PSIxMi41IiBzdHlsZT0ic3Ryb2tlOiMxODE4MTg7c3Ryb2tlLXdpZHRoOjAuNTsiIHdpZHRoPSIyOTIiIHg9IjMzMSIgeT0iNDc1Ii8+PGxpbmUgc3R5bGU9InN0cm9rZTojMTgxODE4O3N0cm9rZS13aWR0aDowLjU7IiB4MT0iMzMxIiB4Mj0iNjIzIiB5MT0iNDk5Ljk4NDQiIHkyPSI0OTkuOTg0NCIvPjx0ZXh0IGZpbGw9IiMwMDAwMDAiIGZvbnQtZmFtaWx5PSJzYW5zLXNlcmlmIiBmb250LXNpemU9IjE0IiBsZW5ndGhBZGp1c3Q9InNwYWNpbmciIHRleHRMZW5ndGg9Ijc4IiB4PSI0MzgiIHk9IjQ5My4yMzQ0Ij5ZZWxsb3dTdGF0ZTwvdGV4dD48dGV4dCBmaWxsPSIjMDAwMDAwIiBmb250LWZhbWlseT0ic2Fucy1zZXJpZiIgZm9udC1zaXplPSIxMiIgbGVuZ3RoQWRqdXN0PSJzcGFjaW5nIiB0ZXh0TGVuZ3RoPSIyNzIiIHg9IjMzNiIgeT0iNTE2LjMyODEiPkNhdXRpb24sIHByZXBhcmUgdG8gc3RvcCBiZWZvcmUgcmVkIGxpZ2h0PC90ZXh0PjwvZz48ZWxsaXBzZSBjeD0iMTExMiIgY3k9IjUwMCIgZmlsbD0iIzIyMjIyMiIgcng9IjEwIiByeT0iMTAiIHN0eWxlPSJzdHJva2U6IzIyMjIyMjtzdHJva2Utd2lkdGg6MS4wOyIvPjxnIGlkPSJSZWQuUmVkU3RhdGUiPjxyZWN0IGZpbGw9IiNGMUYxRjEiIGhlaWdodD0iNTAiIHJ4PSIxMi41IiByeT0iMTIuNSIgc3R5bGU9InN0cm9rZTojMTgxODE4O3N0cm9rZS13aWR0aDowLjU7IiB3aWR0aD0iNTYxIiB4PSI4MzEuNSIgeT0iNjA0Ii8+PGxpbmUgc3R5bGU9InN0cm9rZTojMTgxODE4O3N0cm9rZS13aWR0aDowLjU7IiB4MT0iODMxLjUiIHgyPSIxMzkyLjUiIHkxPSI2MjguOTg0NCIgeTI9IjYyOC45ODQ0Ii8+PHRleHQgZmlsbD0iIzAwMDAwMCIgZm9udC1mYW1pbHk9InNhbnMtc2VyaWYiIGZvbnQtc2l6ZT0iMTQiIGxlbmd0aEFkanVzdD0ic3BhY2luZyIgdGV4dExlbmd0aD0iNTYiIHg9IjEwODQiIHk9IjYyMi4yMzQ0Ij5SZWRTdGF0ZTwvdGV4dD48dGV4dCBmaWxsPSIjMDAwMDAwIiBmb250LWZhbWlseT0ic2Fucy1zZXJpZiIgZm9udC1zaXplPSIxMiIgbGVuZ3RoQWRqdXN0PSJzcGFjaW5nIiB0ZXh0TGVuZ3RoPSI1NDEiIHg9IjgzNi41IiB5PSI2NDUuMzI4MSI+U3RvcCwgdmVoaWNsZXMgZnJvbSByb2FkIG55YXJ1dGFyYW1hIHRvIHNvbmF0dWJlIGFuZCBueWFydXRhcmFtYSB0byB0b3duIG11c3Qgd2FpdDwvdGV4dD48L2c+PGVsbGlwc2UgY3g9Ijg2NiIgY3k9IjU4IiBmaWxsPSIjMjIyMjIyIiByeD0iMTAiIHJ5PSIxMCIgc3R5bGU9InN0cm9rZTojMjIyMjIyO3N0cm9rZS13aWR0aDoxLjA7Ii8+PGcgaWQ9IkJsaW5raW5nUmVkLkJsaW5raW5nUmVkU3RhdGUiPjxyZWN0IGZpbGw9IiNGMUYxRjEiIGhlaWdodD0iNTAiIHJ4PSIxMi41IiByeT0iMTIuNSIgc3R5bGU9InN0cm9rZTojMTgxODE4O3N0cm9rZS13aWR0aDowLjU7IiB3aWR0aD0iNDM0IiB4PSI2NDkiIHk9IjE0OSIvPjxsaW5lIHN0eWxlPSJzdHJva2U6IzE4MTgxODtzdHJva2Utd2lkdGg6MC41OyIgeDE9IjY0OSIgeDI9IjEwODMiIHkxPSIxNzMuOTg0NCIgeTI9IjE3My45ODQ0Ii8+PHRleHQgZmlsbD0iIzAwMDAwMCIgZm9udC1mYW1pbHk9InNhbnMtc2VyaWYiIGZvbnQtc2l6ZT0iMTQiIGxlbmd0aEFkanVzdD0ic3BhY2luZyIgdGV4dExlbmd0aD0iMTEyIiB4PSI4MTAiIHk9IjE2Ny4yMzQ0Ij5CbGlua2luZ1JlZFN0YXRlPC90ZXh0Pjx0ZXh0IGZpbGw9IiMwMDAwMDAiIGZvbnQtZmFtaWx5PSJzYW5zLXNlcmlmIiBmb250LXNpemU9IjEyIiBsZW5ndGhBZGp1c3Q9InNwYWNpbmciIHRleHRMZW5ndGg9IjQxNCIgeD0iNjU0IiB5PSIxOTAuMzI4MSI+TWFsZnVuY3Rpb25pbmcgb3Igc3BlY2lhbCBjb25kaXRpb24gKGZsYXNoaW5nIHJlZCkgb3IgZW1lcmdlbmN5PC90ZXh0PjwvZz48ZWxsaXBzZSBjeD0iMjU5IiBjeT0iNTgiIGZpbGw9IiMyMjIyMjIiIHJ4PSIxMCIgcnk9IjEwIiBzdHlsZT0ic3Ryb2tlOiMyMjIyMjI7c3Ryb2tlLXdpZHRoOjEuMDsiLz48IS0tbGluayAqc3RhcnQqIHRvIEdyZWVuLS0+PGcgaWQ9ImxpbmtfKnN0YXJ0Kl9HcmVlbiI+PHBhdGggZD0iTTI1OSw2OC4zMyBDMjU5LDc1LjAzIDI1OSw4NC43NzEzIDI1OSw5NS42NTExIEMyNTksMTAxLjA5MSAyNTksMTA2LjgxNTYgMjU5LDExMi41ODcgQzI1OSwxMTUuNDcyNyAyNTksMTE4LjM3MDEgMjU5LDEyMS4yNDk0IEMyNTksMTIxLjYwOTQgMjU5LDEyMS45NjkgMjU5LDEyMi4zMjgzIEMyNTksMTIyLjUwNzkgMjU5LDExNi42ODc1IDI1OSwxMTYuODY3ICIgZmlsbD0ibm9uZSIgaWQ9IipzdGFydCotdG8tR3JlZW4iIHN0eWxlPSJzdHJva2U6IzE4MTgxODtzdHJva2Utd2lkdGg6MS4wOyIvPjxwb2x5Z29uIGZpbGw9IiMxODE4MTgiIHBvaW50cz0iMjU5LDEyMi44NjcsMjYzLDExMy44NjcsMjU5LDExNy44NjcsMjU1LDExMy44NjcsMjU5LDEyMi44NjciIHN0eWxlPSJzdHJva2U6IzE4MTgxODtzdHJva2Utd2lkdGg6MS4wOyIvPjwvZz48IS0tbGluayBHcmVlbiB0byBZZWxsb3ctLT48ZyBpZD0ibGlua19HcmVlbl9ZZWxsb3ciPjxwYXRoIGQ9Ik0yNjcuNTU3MSwxNzUuODQ4MyBDMjY3Ljc3OCwxNzUuODcwOSAyNjguMDAyOCwxNzUuODkzOSAyNjguMjMxNywxNzUuOTE3NCBDMjcwLjA2MjMsMTc2LjEwNTEgMjcyLjE0NiwxNzYuMzIyMSAyNzQuNDY1MiwxNzYuNTY4MyBDMjgzLjc0MTksMTc3LjU1MzQgMjk2Ljc4NjksMTc5LjAwNzcgMzEyLjQ4LDE4MC45NDIyIEMzNDMuODY2MywxODQuODExMyAzODUuODQ1LDE5MC42MDEzIDQyOS40NTUsMTk4LjQgQzUxNi42NzUsMjEzLjk5NzUgNjEwLjQyLDIzNy42MyA2MzksMjcwIEM2NDEuMzY3NSwyNzIuNjgyNSA2NDMuMjc4OSwyNzUuNjgzMSA2NDQuODEsMjc4Ljg4NTUgQzY0NS41NzU1LDI4MC40ODY3IDY0Ni4yNDU5LDI4Mi4xMzgzIDY0Ni44MzA3LDI4My44MjU4IEM2NDYuOTc3LDI4NC4yNDc3IDY0Ny4xMTc4LDI4NC42NzE4IDY0Ny4yNTM1LDI4NS4wOTc5IEM2NDcuMzIxMywyODUuMzExIDY0NS42Mzg0LDI3OS43ODUyIDY0NS43MDM3LDI3OS45OTkzICIgZmlsbD0ibm9uZSIgaWQ9IkdyZWVuLXRvLVllbGxvdyIgc3R5bGU9InN0cm9rZTojMTgxODE4O3N0cm9rZS13aWR0aDoxLjA7Ii8+PHBvbHlnb24gZmlsbD0iIzE4MTgxOCIgcG9pbnRzPSI2NDcuNDUzLDI4NS43Mzg2LDY0OC42NTUyLDI3NS45NjM0LDY0NS45OTUyLDI4MC45NTU4LDY0MS4wMDI4LDI3OC4yOTU5LDY0Ny40NTMsMjg1LjczODYiIHN0eWxlPSJzdHJva2U6IzE4MTgxODtzdHJva2Utd2lkdGg6MS4wOyIvPjx0ZXh0IGZpbGw9IiMwMDAwMDAiIGZvbnQtZmFtaWx5PSJzYW5zLXNlcmlmIiBmb250LXNpemU9IjEzIiBsZW5ndGhBZGp1c3Q9InNwYWNpbmciIHRleHRMZW5ndGg9IjIwMCIgeD0iNjI2IiB5PSIyNjAuMjg5MSI+VGltZW91dCAoR3JlZW4gTGlnaHQgRHVyYXRpb24pPC90ZXh0PjwvZz48IS0tbGluayBZZWxsb3cgdG8gUmVkLS0+PGcgaWQ9ImxpbmtfWWVsbG93X1JlZCI+PHBhdGggZD0iTTY1NS4wNDQyLDM3Ni43ODAyIEM2NTUuMDg2NCwzNzYuOTIxNCA2NTUuMTI4OCwzNzcuMDYyOSA2NTUuMTcxNCwzNzcuMjA0NCBDNjU1LjI1NjYsMzc3LjQ4NzUgNjU1LjM0MjcsMzc3Ljc3MTMgNjU1LjQyOTYsMzc4LjA1NTUgQzY1Ni4xMjQ2LDM4MC4zMjk3IDY1Ni44NzI2LDM4Mi42Mzk1IDY1Ny42NzcsMzg0Ljk2NzIgQzY1OS4yODU5LDM4OS42MjI3IDY2MS4xMjA2LDM5NC4zNTAyIDY2My4yMDg4LDM5OS4wMDg0IEM2NjcuMzg1LDQwOC4zMjUgNjcyLjU3NSw0MTcuMzY1IDY3OSw0MjUgQzY5OS44MjUsNDQ5Ljc0NSA3MzEuMTU3NSw0NjguMDU3NSA3NTcuNjEsNDgwLjI3NSBDNzcwLjgzNjMsNDg2LjM4MzggNzgyLjg0MjUsNDkwLjk2ODggNzkxLjcwNTMsNDk0LjA3MjIgQzc5My45MjEsNDk0Ljg0OCA3OTUuOTQwMyw0OTUuNTMxMyA3OTcuNzMzLDQ5Ni4xMjI2IEM3OTcuOTU3MSw0OTYuMTk2NSA3OTguMTc3Niw0OTYuMjY5IDc5OC4zOTQ2LDQ5Ni4zNDAxIEM3OTguNTAzLDQ5Ni4zNzU2IDc5Mi45MDY2LDQ5NC41NDk2IDc5My4wMTMyLDQ5NC41ODQ0ICIgZmlsbD0ibm9uZSIgaWQ9IlllbGxvdy10by1SZWQiIHN0eWxlPSJzdHJva2U6IzE4MTgxODtzdHJva2Utd2lkdGg6MS4wOyIvPjxwb2x5Z29uIGZpbGw9IiMxODE4MTgiIHBvaW50cz0iNzk4LjcxNzMsNDk2LjQ0NTYsNzkxLjQwMiw0ODkuODUxMiw3OTMuOTYzOSw0OTQuODk0Niw3ODguOTIwNSw0OTcuNDU2Niw3OTguNzE3Myw0OTYuNDQ1NiIgc3R5bGU9InN0cm9rZTojMTgxODE4O3N0cm9rZS13aWR0aDoxLjA7Ii8+PHRleHQgZmlsbD0iIzAwMDAwMCIgZm9udC1mYW1pbHk9InNhbnMtc2VyaWYiIGZvbnQtc2l6ZT0iMTMiIGxlbmd0aEFkanVzdD0ic3BhY2luZyIgdGV4dExlbmd0aD0iMjA0IiB4PSI2ODAiIHk9IjQyMy4yODkxIj5UaW1lb3V0IChZZWxsb3cgTGlnaHQgRHVyYXRpb24pPC90ZXh0PjwvZz48IS0tbGluayBSZWQgdG8gR3JlZW4tLT48ZyBpZD0ibGlua19SZWRfR3JlZW4iPjxwYXRoIGQ9Ik04MDUuNzcyMSw0NDguODMyNCBDODA2LjAzNTcsNDQ3Ljk4NDYgODA2LjMyMTQsNDQ3LjE0NTcgODA2LjYzMDUsNDQ2LjMxNzYgQzgwNy4yNDg2LDQ0NC42NjE1IDgwNy45NjAyLDQ0My4wNDg2IDgwOC43NzU4LDQ0MS40OTQ2IEM4MTAuNDA2OSw0MzguMzg2NiA4MTIuNDUzOCw0MzUuNTEzOCA4MTUsNDMzIEM4MjYuNzcsNDIxLjM4IDg3Ny45NSw0MzcuMzEgODg5LDQyNSBDOTQ0LjIzLDM2My40OCA5MDEuMDUsMjk2LjcyIDgzNSwyNDcgQzgyNi4wMywyNDAuMjUgNjQ0LjE3LDI0MC4xNyA2MzMsMjM5IEM1NTAuNDUsMjMwLjM0IDQ1OC41NiwyMTQuNyAzODYuNTIxMywyMDEuMDQ4OCBDMzUwLjUwMTksMTk0LjIyMzEgMzE5LjQ0NTMsMTg3Ljg5NDcgMjk3LjAwMDUsMTgzLjE4NDUgQzI4NS43NzgsMTgwLjgyOTUgMjc2LjcwODYsMTc4Ljg3ODkgMjcwLjI0ODEsMTc3LjQ3MzEgQzI2OS40NDA1LDE3Ny4yOTc0IDI2OC42NzM4LDE3Ny4xMzAyIDI2Ny45NDg2LDE3Ni45NzE4IEMyNjcuNzY3MywxNzYuOTMyMiAyNzMuNDUwMSwxNzguMTc1IDI3My4yNzQxLDE3OC4xMzY1ICIgZmlsbD0ibm9uZSIgaWQ9IlJlZC10by1HcmVlbiIgc3R5bGU9InN0cm9rZTojMTgxODE4O3N0cm9rZS13aWR0aDoxLjA7Ii8+PHBvbHlnb24gZmlsbD0iIzE4MTgxOCIgcG9pbnRzPSIyNjcuNDEyNiwxNzYuODU0NiwyNzUuMzUwMiwxODIuNjg1MSwyNzIuMjk3MiwxNzcuOTIyOSwyNzcuMDU5NCwxNzQuODY5OCwyNjcuNDEyNiwxNzYuODU0NiIgc3R5bGU9InN0cm9rZTojMTgxODE4O3N0cm9rZS13aWR0aDoxLjA7Ii8+PHRleHQgZmlsbD0iIzAwMDAwMCIgZm9udC1mYW1pbHk9InNhbnMtc2VyaWYiIGZvbnQtc2l6ZT0iMTMiIGxlbmd0aEFkanVzdD0ic3BhY2luZyIgdGV4dExlbmd0aD0iMTg2IiB4PSI5MTUiIHk9IjM0Mi43ODkxIj5UaW1lb3V0IChSZWQgTGlnaHQgRHVyYXRpb24pPC90ZXh0PjwvZz48IS0tbGluayAqc3RhcnQqR3JlZW4gdG8gR3JlZW5TdGF0ZS0tPjxnIGlkPSJsaW5rXypzdGFydCpHcmVlbl9HcmVlblN0YXRlIj48cGF0aCBkPSJNMTMzLDE4NC4xMiBDMTMzLDIwOC40NiAxMzMsMjY5LjYxIDEzMywzMDUuOTMgIiBmaWxsPSJub25lIiBpZD0iKnN0YXJ0KkdyZWVuLXRvLUdyZWVuU3RhdGUiIHN0eWxlPSJzdHJva2U6IzE4MTgxODtzdHJva2Utd2lkdGg6MS4wOyIvPjxwb2x5Z29uIGZpbGw9IiMxODE4MTgiIHBvaW50cz0iMTMzLDMxMS45MywxMzcsMzAyLjkzLDEzMywzMDYuOTMsMTI5LDMwMi45MywxMzMsMzExLjkzIiBzdHlsZT0ic3Ryb2tlOiMxODE4MTg7c3Ryb2tlLXdpZHRoOjEuMDsiLz48L2c+PCEtLWxpbmsgKnN0YXJ0KlllbGxvdyB0byBZZWxsb3dTdGF0ZS0tPjxnIGlkPSJsaW5rXypzdGFydCpZZWxsb3dfWWVsbG93U3RhdGUiPjxwYXRoIGQ9Ik00NzcsMzQ3LjEyIEM0NzcsMzcxLjQ2IDQ3Nyw0MzIuNjEgNDc3LDQ2OC45MyAiIGZpbGw9Im5vbmUiIGlkPSIqc3RhcnQqWWVsbG93LXRvLVllbGxvd1N0YXRlIiBzdHlsZT0ic3Ryb2tlOiMxODE4MTg7c3Ryb2tlLXdpZHRoOjEuMDsiLz48cG9seWdvbiBmaWxsPSIjMTgxODE4IiBwb2ludHM9IjQ3Nyw0NzQuOTMsNDgxLDQ2NS45Myw0NzcsNDY5LjkzLDQ3Myw0NjUuOTMsNDc3LDQ3NC45MyIgc3R5bGU9InN0cm9rZTojMTgxODE4O3N0cm9rZS13aWR0aDoxLjA7Ii8+PC9nPjwhLS1saW5rICpzdGFydCpSZWQgdG8gUmVkU3RhdGUtLT48ZyBpZD0ibGlua18qc3RhcnQqUmVkX1JlZFN0YXRlIj48cGF0aCBkPSJNMTExMiw1MTAuMTMgQzExMTIsNTI5LjUzIDExMTIsNTY5LjM3IDExMTIsNTk3LjgzICIgZmlsbD0ibm9uZSIgaWQ9IipzdGFydCpSZWQtdG8tUmVkU3RhdGUiIHN0eWxlPSJzdHJva2U6IzE4MTgxODtzdHJva2Utd2lkdGg6MS4wOyIvPjxwb2x5Z29uIGZpbGw9IiMxODE4MTgiIHBvaW50cz0iMTExMiw2MDMuODMsMTExNiw1OTQuODMsMTExMiw1OTguODMsMTEwOCw1OTQuODMsMTExMiw2MDMuODMiIHN0eWxlPSJzdHJva2U6IzE4MTgxODtzdHJva2Utd2lkdGg6MS4wOyIvPjwvZz48IS0tbGluayAqc3RhcnQqQmxpbmtpbmdSZWQgdG8gQmxpbmtpbmdSZWRTdGF0ZS0tPjxnIGlkPSJsaW5rXypzdGFydCpCbGlua2luZ1JlZF9CbGlua2luZ1JlZFN0YXRlIj48cGF0aCBkPSJNODY2LDY4LjMzIEM4NjYsODUuNzcgODY2LDExNy44MiA4NjYsMTQyLjkyICIgZmlsbD0ibm9uZSIgaWQ9IipzdGFydCpCbGlua2luZ1JlZC10by1CbGlua2luZ1JlZFN0YXRlIiBzdHlsZT0ic3Ryb2tlOiMxODE4MTg7c3Ryb2tlLXdpZHRoOjEuMDsiLz48cG9seWdvbiBmaWxsPSIjMTgxODE4IiBwb2ludHM9Ijg2NiwxNDguOTIsODcwLDEzOS45Miw4NjYsMTQzLjkyLDg2MiwxMzkuOTIsODY2LDE0OC45MiIgc3R5bGU9InN0cm9rZTojMTgxODE4O3N0cm9rZS13aWR0aDoxLjA7Ii8+PC9nPjwhLS1saW5rIEdyZWVuIHRvIEdyZWVuU3RhdGUtLT48ZyBpZD0ibGlua19HcmVlbl9HcmVlblN0YXRlIj48cGF0aCBkPSJNMjU5LjAyLDE3NS4xMSBDMjU5LjM1LDE3Ny40MiAyNjQuNCwyMTQuNjggMjUxLDIzOSBDMjMzLjkyLDI3MC4wMSAyMDcuNTk5OSwyOTEuODA0MyAxODEuNDk5OSwzMDguNjY0MyAiIGZpbGw9Im5vbmUiIGlkPSJHcmVlbi10by1HcmVlblN0YXRlIiBzdHlsZT0ic3Ryb2tlOiMxODE4MTg7c3Ryb2tlLXdpZHRoOjEuMDsiLz48cG9seWdvbiBmaWxsPSIjMTgxODE4IiBwb2ludHM9IjE3Ni40NiwzMTEuOTIsMTg2LjE5MDMsMzEwLjM5NjQsMTgwLjY1OTksMzA5LjIwNjksMTgxLjg0OTQsMzAzLjY3NjYsMTc2LjQ2LDMxMS45MiIgc3R5bGU9InN0cm9rZTojMTgxODE4O3N0cm9rZS13aWR0aDoxLjA7Ii8+PC9nPjwhLS1saW5rIFllbGxvdyB0byBZZWxsb3dTdGF0ZS0tPjxnIGlkPSJsaW5rX1llbGxvd19ZZWxsb3dTdGF0ZSI+PHBhdGggZD0iTTY0Ny4wMiwzMzguMTIgQzY0Ny40NiwzNDAuNDggNjU0LjE3LDM3OC43NCA2MzksNDAyIEM2MTcuMDcsNDM1LjY0IDU4NC40Nzk1LDQ1Ni43Nzk0IDU1MC43Njk1LDQ3Mi4zMDk0ICIgZmlsbD0ibm9uZSIgaWQ9IlllbGxvdy10by1ZZWxsb3dTdGF0ZSIgc3R5bGU9InN0cm9rZTojMTgxODE4O3N0cm9rZS13aWR0aDoxLjA7Ii8+PHBvbHlnb24gZmlsbD0iIzE4MTgxOCIgcG9pbnRzPSI1NDUuMzIsNDc0LjgyLDU1NS4xNjgsNDc0LjY4NzIsNTQ5Ljg2MTMsNDcyLjcyNzksNTUxLjgyMDYsNDY3LjQyMTIsNTQ1LjMyLDQ3NC44MiIgc3R5bGU9InN0cm9rZTojMTgxODE4O3N0cm9rZS13aWR0aDoxLjA7Ii8+PC9nPjwhLS1saW5rIFJlZCB0byBSZWRTdGF0ZS0tPjxnIGlkPSJsaW5rX1JlZF9SZWRTdGF0ZSI+PHBhdGggZD0iTTgwNi45Nyw1MDEuMTIgQzgwNi4zMiw1MDMuNjYgNzk2LjIxLDU0NC41NSA4MTUsNTY1IEM4MzAuNTEsNTgxLjg4IDg2My45MDYsNTkzLjM0NjcgOTA4Ljk5Niw2MDIuNzM2NyAiIGZpbGw9Im5vbmUiIGlkPSJSZWQtdG8tUmVkU3RhdGUiIHN0eWxlPSJzdHJva2U6IzE4MTgxODtzdHJva2Utd2lkdGg6MS4wOyIvPjxwb2x5Z29uIGZpbGw9IiMxODE4MTgiIHBvaW50cz0iOTE0Ljg3LDYwMy45Niw5MDYuODc0NSw1OTguMjA5MSw5MDkuOTc1LDYwMi45NDA2LDkwNS4yNDM1LDYwNi4wNDExLDkxNC44Nyw2MDMuOTYiIHN0eWxlPSJzdHJva2U6IzE4MTgxODtzdHJva2Utd2lkdGg6MS4wOyIvPjwvZz48IS0tbGluayBCbGlua2luZ1JlZCB0byBCbGlua2luZ1JlZFN0YXRlLS0+PGcgaWQ9ImxpbmtfQmxpbmtpbmdSZWRfQmxpbmtpbmdSZWRTdGF0ZSI+PHBhdGggZD0iTTYyNS4wNCw1OS4wNyBDNjI1LjQ2LDU5LjcyIDYyOC45Niw2NS4wMyA2MzMsNjggQzY4MS42MiwxMDMuNzMgNzM4LjcxNDIsMTI5LjA0NDMgNzg2LjgzNDIsMTQ2Ljg4NDMgIiBmaWxsPSJub25lIiBpZD0iQmxpbmtpbmdSZWQtdG8tQmxpbmtpbmdSZWRTdGF0ZSIgc3R5bGU9InN0cm9rZTojMTgxODE4O3N0cm9rZS13aWR0aDoxLjA7Ii8+PHBvbHlnb24gZmlsbD0iIzE4MTgxOCIgcG9pbnRzPSI3OTIuNDYsMTQ4Ljk3LDc4NS40MTE4LDE0Mi4wOTA5LDc4Ny43NzE4LDE0Ny4yMzE5LDc4Mi42MzA4LDE0OS41OTIsNzkyLjQ2LDE0OC45NyIgc3R5bGU9InN0cm9rZTojMTgxODE4O3N0cm9rZS13aWR0aDoxLjA7Ii8+PC9nPjwhLS1TUkM9W1JMQjFKaUNtM0J0dEF0cFNxRk8zNzNXMDRYVXVDOEk0OVd2VXd0UkhxaFhBYXJLSnVqLW5rdFJERWRnOV9EeEJ5dEZneFRxdGhEU0Z5RUE5TjlSckhtenlhUk5TbUpyeWM5ZXUxYllTa0xUSnhHQ3lIdV8xaTVqY1dxd2xsNUVId1dUY1ZhNUxidXdmTmVjdkU2aTMxWGdxRm5kOGpxcUpSdkprdVFhS3BxX1Fjem5JMi1XOUs2RThUczJlLUtaUHgtV3cxQm9zRk9FSlJyQUJ5SEQ2M1JRMm5iRVp2Y0JRMWN2V0hvTEJ3UU1GckhjY0JaaE1UR2oxOWwtbjRGRUQ2QXRXRTZPbEZUVlc2R2ptOV9HbmVDU1EtdVJpQ0NJVEpFUGtrQzJUV3BnczBKZXFJT2Y3UXpwMWtFZXNKUzlDZ1VRV2Y3ajNNcVFOd19YMjA3amU2eWVETWlaUDVLUG5NOUdNc3h0SXlYMUJyTDFEbFlBTmRwSkFqNXQ5cHFpTUE3dHhTS3FraVQ4OV9pbHoxbTAwXS0tPjwvZz48L3N2Zz4=;" vertex="1" parent="1">
            <mxGeometry x="-360" y="-360" width="1430" height="684" as="geometry" />
          </mxCell>
        </UserObject>
      </root>
    </mxGraphModel>
  </diagram>
  <diagram id="5ljTR4jQOOXYHJimLPRZ" name="Page-2">
    <mxGraphModel dx="1120" dy="128" grid="0" gridSize="10" guides="1" tooltips="1" connect="1" arrows="1" fold="1" page="0" pageScale="1" pageWidth="850" pageHeight="1100" math="0" shadow="0">
      <root>
        <mxCell id="0" />
        <mxCell id="1" parent="0" />
        <UserObject label="" plantUmlData="{&quot;data&quot;:&quot;@startuml\n\n&#39; Define classes\nclass University\nclass School \nclass Department \nclass Dean \nclass DepartmentHead \nclass Professor \nclass TeachingAssistant \nclass Course \nclass UndergraduateCourse\nclass GraduateCourse\nclass Student \nclass Quiz\nclass Exam \nclass Building \nclass Classroom \nclass Committee \nclass SchoolCatalog\nclass Degree \n\n&#39; Define relationships\nUniversity \&quot;1\&quot; -- \&quot;1..*\&quot; School : contains\nSchool \&quot;1\&quot; -- \&quot;1..*\&quot; Department : contains\nSchool \&quot;1\&quot; -- \&quot;1\&quot; Dean : manages\nDepartment \&quot;1\&quot; -- \&quot;1\&quot; DepartmentHead : manages\nDepartment \&quot;1\&quot; -- \&quot;1..*\&quot; Professor : employs\nDepartment \&quot;1\&quot; -- \&quot;0..*\&quot; TeachingAssistant : employs\nDepartment \&quot;1..*\&quot; -- \&quot;1\&quot; SchoolCatalog : listed_in\n\n&#39; Inheritance relationships\nCourse &lt;|-- UndergraduateCourse\nCourse &lt;|-- GraduateCourse\n\n&#39; Academic relationships\nDepartment \&quot;1\&quot; -- \&quot;1..*\&quot; Course : offers\nProfessor \&quot;1\&quot; -- \&quot;1..*\&quot; Course : teaches\nTeachingAssistant \&quot;0..1\&quot; -- \&quot;1..*\&quot; Course : assists\nStudent \&quot;1..*\&quot; -- \&quot;1..*\&quot; Course : enrolls_in\n\n&#39; Course related\nCourse \&quot;1\&quot; -- \&quot;0..*\&quot; Quiz : includes\nCourse \&quot;1\&quot; -- \&quot;1..*\&quot; Exam : includes\n\n&#39; Physical structure\nBuilding \&quot;1\&quot; -- \&quot;1..*\&quot; Classroom : contains\nCourse \&quot;1\&quot; -- \&quot;1\&quot; Classroom : held_in\n\n&#39; Administrative\nCommittee \&quot;1\&quot; -- \&quot;3..*\&quot; Professor : consists_of\nDepartment \&quot;1\&quot; -- \&quot;1..*\&quot; Committee : has\n\n&#39; Student\nStudent -- Degree : pursue&quot;,&quot;format&quot;:&quot;svg&quot;}" id="SsPeMjCuRSD9xU0gso7f-26">
          <mxCell style="shape=image;noLabel=1;verticalAlign=top;aspect=fixed;imageAspect=0;image=data:image/svg+xml,PD94bWwgdmVyc2lvbj0iMS4wIiBlbmNvZGluZz0idXMtYXNjaWkiIHN0YW5kYWxvbmU9Im5vIj8+PHN2ZyB4bWxucz0iaHR0cDovL3d3dy53My5vcmcvMjAwMC9zdmciIHhtbG5zOnhsaW5rPSJodHRwOi8vd3d3LnczLm9yZy8xOTk5L3hsaW5rIiBjb250ZW50U3R5bGVUeXBlPSJ0ZXh0L2NzcyIgaGVpZ2h0PSI4MzNweCIgcHJlc2VydmVBc3BlY3RSYXRpbz0ibm9uZSIgc3R5bGU9IndpZHRoOjg0NnB4O2hlaWdodDo4MzNweDtiYWNrZ3JvdW5kOiNGRkZGRkY7IiB2ZXJzaW9uPSIxLjEiIHZpZXdCb3g9IjAgMCA4NDYgODMzIiB3aWR0aD0iODQ2cHgiIHpvb21BbmRQYW49Im1hZ25pZnkiPjxkZWZzLz48Zz48IS0tY2xhc3MgVW5pdmVyc2l0eS0tPjxnIGlkPSJlbGVtX1VuaXZlcnNpdHkiPjxyZWN0IGNvZGVMaW5lPSIyIiBmaWxsPSIjRjFGMUYxIiBoZWlnaHQ9IjQ4IiBpZD0iVW5pdmVyc2l0eSIgcng9IjIuNSIgcnk9IjIuNSIgc3R5bGU9InN0cm9rZTojMTgxODE4O3N0cm9rZS13aWR0aDowLjU7IiB3aWR0aD0iMTAyIiB4PSI1MDEuNSIgeT0iNyIvPjxlbGxpcHNlIGN4PSI1MTYuNSIgY3k9IjIzIiBmaWxsPSIjQUREMUIyIiByeD0iMTEiIHJ5PSIxMSIgc3R5bGU9InN0cm9rZTojMTgxODE4O3N0cm9rZS13aWR0aDoxLjA7Ii8+PHBhdGggZD0iTTUxNC4xMjUsMjcuMjUgTDUxNC4xMjUsMjkgTDUxOS4wNjI1LDI5IEw1MTkuMDYyNSwyNy4yNSBMNTE0LjEyNSwyNy4yNSBaIE01MTQuODEyNSwyNy45Mzc1IFE1MTQuODEyNSwyNy45Mzc1IDUxNC44MTI1LDE4Ljc1IEw1MTMuMDYyNSwxOC43NSBRNTEzLjA2MjUsMTguNzUgNTEzLjA2MjUsMjcuOTM3NSBMNTE0LjgxMjUsMjcuOTM3NSBaIE01MTguMzc1LDI3LjkzNzUgTDUyMC4xMjUsMjcuOTM3NSBRNTIwLjEyNSwyNy45Mzc1IDUyMC4xMjUsMjUuMTI1IEw1MTguMzc1LDI1LjEyNSBRNTE4LjM3NSwyNS4xMjUgNTE4LjM3NSwyNy45Mzc1IFogTTUxOC4zNzUsMTguNzUgUTUxOC4zNzUsMTguNzUgNTE4LjM3NSwyMS41NjI1IEw1MjAuMTI1LDIxLjU2MjUgUTUyMC4xMjUsMjEuNTYyNSA1MjAuMTI1LDE4Ljc1IEw1MTguMzc1LDE4Ljc1IFogTTUxNC4xMjUsMTkuNDM3NSBMNTE5LjA2MjUsMTkuNDM3NSBMNTE5LjA2MjUsMTcuNjg3NSBMNTE0LjEyNSwxNy42ODc1IEw1MTQuMTI1LDE5LjQzNzUgWiAiIGZpbGw9IiMwMDAwMDAiLz48dGV4dCBmaWxsPSIjMDAwMDAwIiBmb250LWZhbWlseT0ic2Fucy1zZXJpZiIgZm9udC1zaXplPSIxNCIgbGVuZ3RoQWRqdXN0PSJzcGFjaW5nIiB0ZXh0TGVuZ3RoPSI3MCIgeD0iNTMwLjUiIHk9IjI4Ljc0MjIiPlVuaXZlcnNpdHk8L3RleHQ+PGxpbmUgc3R5bGU9InN0cm9rZTojMTgxODE4O3N0cm9rZS13aWR0aDowLjU7IiB4MT0iNTAyLjUiIHgyPSI2MDIuNSIgeTE9IjM5IiB5Mj0iMzkiLz48bGluZSBzdHlsZT0ic3Ryb2tlOiMxODE4MTg7c3Ryb2tlLXdpZHRoOjAuNTsiIHgxPSI1MDIuNSIgeDI9IjYwMi41IiB5MT0iNDciIHkyPSI0NyIvPjwvZz48IS0tY2xhc3MgU2Nob29sLS0+PGcgaWQ9ImVsZW1fU2Nob29sIj48cmVjdCBjb2RlTGluZT0iMyIgZmlsbD0iI0YxRjFGMSIgaGVpZ2h0PSI0OCIgaWQ9IlNjaG9vbCIgcng9IjIuNSIgcnk9IjIuNSIgc3R5bGU9InN0cm9rZTojMTgxODE4O3N0cm9rZS13aWR0aDowLjU7IiB3aWR0aD0iNzQiIHg9IjUxNS41IiB5PSIxMzAiLz48ZWxsaXBzZSBjeD0iNTMwLjUiIGN5PSIxNDYiIGZpbGw9IiNBREQxQjIiIHJ4PSIxMSIgcnk9IjExIiBzdHlsZT0ic3Ryb2tlOiMxODE4MTg7c3Ryb2tlLXdpZHRoOjEuMDsiLz48cGF0aCBkPSJNNTI4LjEyNSwxNTAuMjUgTDUyOC4xMjUsMTUyIEw1MzMuMDYyNSwxNTIgTDUzMy4wNjI1LDE1MC4yNSBMNTI4LjEyNSwxNTAuMjUgWiBNNTI4LjgxMjUsMTUwLjkzNzUgUTUyOC44MTI1LDE1MC45Mzc1IDUyOC44MTI1LDE0MS43NSBMNTI3LjA2MjUsMTQxLjc1IFE1MjcuMDYyNSwxNDEuNzUgNTI3LjA2MjUsMTUwLjkzNzUgTDUyOC44MTI1LDE1MC45Mzc1IFogTTUzMi4zNzUsMTUwLjkzNzUgTDUzNC4xMjUsMTUwLjkzNzUgUTUzNC4xMjUsMTUwLjkzNzUgNTM0LjEyNSwxNDguMTI1IEw1MzIuMzc1LDE0OC4xMjUgUTUzMi4zNzUsMTQ4LjEyNSA1MzIuMzc1LDE1MC45Mzc1IFogTTUzMi4zNzUsMTQxLjc1IFE1MzIuMzc1LDE0MS43NSA1MzIuMzc1LDE0NC41NjI1IEw1MzQuMTI1LDE0NC41NjI1IFE1MzQuMTI1LDE0NC41NjI1IDUzNC4xMjUsMTQxLjc1IEw1MzIuMzc1LDE0MS43NSBaIE01MjguMTI1LDE0Mi40Mzc1IEw1MzMuMDYyNSwxNDIuNDM3NSBMNTMzLjA2MjUsMTQwLjY4NzUgTDUyOC4xMjUsMTQwLjY4NzUgTDUyOC4xMjUsMTQyLjQzNzUgWiAiIGZpbGw9IiMwMDAwMDAiLz48dGV4dCBmaWxsPSIjMDAwMDAwIiBmb250LWZhbWlseT0ic2Fucy1zZXJpZiIgZm9udC1zaXplPSIxNCIgbGVuZ3RoQWRqdXN0PSJzcGFjaW5nIiB0ZXh0TGVuZ3RoPSI0MiIgeD0iNTQ0LjUiIHk9IjE1MS43NDIyIj5TY2hvb2w8L3RleHQ+PGxpbmUgc3R5bGU9InN0cm9rZTojMTgxODE4O3N0cm9rZS13aWR0aDowLjU7IiB4MT0iNTE2LjUiIHgyPSI1ODguNSIgeTE9IjE2MiIgeTI9IjE2MiIvPjxsaW5lIHN0eWxlPSJzdHJva2U6IzE4MTgxODtzdHJva2Utd2lkdGg6MC41OyIgeDE9IjUxNi41IiB4Mj0iNTg4LjUiIHkxPSIxNzAiIHkyPSIxNzAiLz48L2c+PCEtLWNsYXNzIERlcGFydG1lbnQtLT48ZyBpZD0iZWxlbV9EZXBhcnRtZW50Ij48cmVjdCBjb2RlTGluZT0iNCIgZmlsbD0iI0YxRjFGMSIgaGVpZ2h0PSI0OCIgaWQ9IkRlcGFydG1lbnQiIHJ4PSIyLjUiIHJ5PSIyLjUiIHN0eWxlPSJzdHJva2U6IzE4MTgxODtzdHJva2Utd2lkdGg6MC41OyIgd2lkdGg9IjEwMyIgeD0iNDQyIiB5PSIyNTMiLz48ZWxsaXBzZSBjeD0iNDU3IiBjeT0iMjY5IiBmaWxsPSIjQUREMUIyIiByeD0iMTEiIHJ5PSIxMSIgc3R5bGU9InN0cm9rZTojMTgxODE4O3N0cm9rZS13aWR0aDoxLjA7Ii8+PHBhdGggZD0iTTQ1NC42MjUsMjczLjI1IEw0NTQuNjI1LDI3NSBMNDU5LjU2MjUsMjc1IEw0NTkuNTYyNSwyNzMuMjUgTDQ1NC42MjUsMjczLjI1IFogTTQ1NS4zMTI1LDI3My45Mzc1IFE0NTUuMzEyNSwyNzMuOTM3NSA0NTUuMzEyNSwyNjQuNzUgTDQ1My41NjI1LDI2NC43NSBRNDUzLjU2MjUsMjY0Ljc1IDQ1My41NjI1LDI3My45Mzc1IEw0NTUuMzEyNSwyNzMuOTM3NSBaIE00NTguODc1LDI3My45Mzc1IEw0NjAuNjI1LDI3My45Mzc1IFE0NjAuNjI1LDI3My45Mzc1IDQ2MC42MjUsMjcxLjEyNSBMNDU4Ljg3NSwyNzEuMTI1IFE0NTguODc1LDI3MS4xMjUgNDU4Ljg3NSwyNzMuOTM3NSBaIE00NTguODc1LDI2NC43NSBRNDU4Ljg3NSwyNjQuNzUgNDU4Ljg3NSwyNjcuNTYyNSBMNDYwLjYyNSwyNjcuNTYyNSBRNDYwLjYyNSwyNjcuNTYyNSA0NjAuNjI1LDI2NC43NSBMNDU4Ljg3NSwyNjQuNzUgWiBNNDU0LjYyNSwyNjUuNDM3NSBMNDU5LjU2MjUsMjY1LjQzNzUgTDQ1OS41NjI1LDI2My42ODc1IEw0NTQuNjI1LDI2My42ODc1IEw0NTQuNjI1LDI2NS40Mzc1IFogIiBmaWxsPSIjMDAwMDAwIi8+PHRleHQgZmlsbD0iIzAwMDAwMCIgZm9udC1mYW1pbHk9InNhbnMtc2VyaWYiIGZvbnQtc2l6ZT0iMTQiIGxlbmd0aEFkanVzdD0ic3BhY2luZyIgdGV4dExlbmd0aD0iNzEiIHg9IjQ3MSIgeT0iMjc0Ljc0MjIiPkRlcGFydG1lbnQ8L3RleHQ+PGxpbmUgc3R5bGU9InN0cm9rZTojMTgxODE4O3N0cm9rZS13aWR0aDowLjU7IiB4MT0iNDQzIiB4Mj0iNTQ0IiB5MT0iMjg1IiB5Mj0iMjg1Ii8+PGxpbmUgc3R5bGU9InN0cm9rZTojMTgxODE4O3N0cm9rZS13aWR0aDowLjU7IiB4MT0iNDQzIiB4Mj0iNTQ0IiB5MT0iMjkzIiB5Mj0iMjkzIi8+PC9nPjwhLS1jbGFzcyBEZWFuLS0+PGcgaWQ9ImVsZW1fRGVhbiI+PHJlY3QgY29kZUxpbmU9IjUiIGZpbGw9IiNGMUYxRjEiIGhlaWdodD0iNDgiIGlkPSJEZWFuIiByeD0iMi41IiByeT0iMi41IiBzdHlsZT0ic3Ryb2tlOiMxODE4MTg7c3Ryb2tlLXdpZHRoOjAuNTsiIHdpZHRoPSI2MCIgeD0iNTgwLjUiIHk9IjI1MyIvPjxlbGxpcHNlIGN4PSI1OTUuNSIgY3k9IjI2OSIgZmlsbD0iI0FERDFCMiIgcng9IjExIiByeT0iMTEiIHN0eWxlPSJzdHJva2U6IzE4MTgxODtzdHJva2Utd2lkdGg6MS4wOyIvPjxwYXRoIGQ9Ik01OTMuMTI1LDI3My4yNSBMNTkzLjEyNSwyNzUgTDU5OC4wNjI1LDI3NSBMNTk4LjA2MjUsMjczLjI1IEw1OTMuMTI1LDI3My4yNSBaIE01OTMuODEyNSwyNzMuOTM3NSBRNTkzLjgxMjUsMjczLjkzNzUgNTkzLjgxMjUsMjY0Ljc1IEw1OTIuMDYyNSwyNjQuNzUgUTU5Mi4wNjI1LDI2NC43NSA1OTIuMDYyNSwyNzMuOTM3NSBMNTkzLjgxMjUsMjczLjkzNzUgWiBNNTk3LjM3NSwyNzMuOTM3NSBMNTk5LjEyNSwyNzMuOTM3NSBRNTk5LjEyNSwyNzMuOTM3NSA1OTkuMTI1LDI3MS4xMjUgTDU5Ny4zNzUsMjcxLjEyNSBRNTk3LjM3NSwyNzEuMTI1IDU5Ny4zNzUsMjczLjkzNzUgWiBNNTk3LjM3NSwyNjQuNzUgUTU5Ny4zNzUsMjY0Ljc1IDU5Ny4zNzUsMjY3LjU2MjUgTDU5OS4xMjUsMjY3LjU2MjUgUTU5OS4xMjUsMjY3LjU2MjUgNTk5LjEyNSwyNjQuNzUgTDU5Ny4zNzUsMjY0Ljc1IFogTTU5My4xMjUsMjY1LjQzNzUgTDU5OC4wNjI1LDI2NS40Mzc1IEw1OTguMDYyNSwyNjMuNjg3NSBMNTkzLjEyNSwyNjMuNjg3NSBMNTkzLjEyNSwyNjUuNDM3NSBaICIgZmlsbD0iIzAwMDAwMCIvPjx0ZXh0IGZpbGw9IiMwMDAwMDAiIGZvbnQtZmFtaWx5PSJzYW5zLXNlcmlmIiBmb250LXNpemU9IjE0IiBsZW5ndGhBZGp1c3Q9InNwYWNpbmciIHRleHRMZW5ndGg9IjI4IiB4PSI2MDkuNSIgeT0iMjc0Ljc0MjIiPkRlYW48L3RleHQ+PGxpbmUgc3R5bGU9InN0cm9rZTojMTgxODE4O3N0cm9rZS13aWR0aDowLjU7IiB4MT0iNTgxLjUiIHgyPSI2MzkuNSIgeTE9IjI4NSIgeTI9IjI4NSIvPjxsaW5lIHN0eWxlPSJzdHJva2U6IzE4MTgxODtzdHJva2Utd2lkdGg6MC41OyIgeDE9IjU4MS41IiB4Mj0iNjM5LjUiIHkxPSIyOTMiIHkyPSIyOTMiLz48L2c+PCEtLWNsYXNzIERlcGFydG1lbnRIZWFkLS0+PGcgaWQ9ImVsZW1fRGVwYXJ0bWVudEhlYWQiPjxyZWN0IGNvZGVMaW5lPSI2IiBmaWxsPSIjRjFGMUYxIiBoZWlnaHQ9IjQ4IiBpZD0iRGVwYXJ0bWVudEhlYWQiIHJ4PSIyLjUiIHJ5PSIyLjUiIHN0eWxlPSJzdHJva2U6IzE4MTgxODtzdHJva2Utd2lkdGg6MC41OyIgd2lkdGg9IjEzMSIgeD0iMTU1IiB5PSIzNzYiLz48ZWxsaXBzZSBjeD0iMTcwIiBjeT0iMzkyIiBmaWxsPSIjQUREMUIyIiByeD0iMTEiIHJ5PSIxMSIgc3R5bGU9InN0cm9rZTojMTgxODE4O3N0cm9rZS13aWR0aDoxLjA7Ii8+PHBhdGggZD0iTTE2Ny42MjUsMzk2LjI1IEwxNjcuNjI1LDM5OCBMMTcyLjU2MjUsMzk4IEwxNzIuNTYyNSwzOTYuMjUgTDE2Ny42MjUsMzk2LjI1IFogTTE2OC4zMTI1LDM5Ni45Mzc1IFExNjguMzEyNSwzOTYuOTM3NSAxNjguMzEyNSwzODcuNzUgTDE2Ni41NjI1LDM4Ny43NSBRMTY2LjU2MjUsMzg3Ljc1IDE2Ni41NjI1LDM5Ni45Mzc1IEwxNjguMzEyNSwzOTYuOTM3NSBaIE0xNzEuODc1LDM5Ni45Mzc1IEwxNzMuNjI1LDM5Ni45Mzc1IFExNzMuNjI1LDM5Ni45Mzc1IDE3My42MjUsMzk0LjEyNSBMMTcxLjg3NSwzOTQuMTI1IFExNzEuODc1LDM5NC4xMjUgMTcxLjg3NSwzOTYuOTM3NSBaIE0xNzEuODc1LDM4Ny43NSBRMTcxLjg3NSwzODcuNzUgMTcxLjg3NSwzOTAuNTYyNSBMMTczLjYyNSwzOTAuNTYyNSBRMTczLjYyNSwzOTAuNTYyNSAxNzMuNjI1LDM4Ny43NSBMMTcxLjg3NSwzODcuNzUgWiBNMTY3LjYyNSwzODguNDM3NSBMMTcyLjU2MjUsMzg4LjQzNzUgTDE3Mi41NjI1LDM4Ni42ODc1IEwxNjcuNjI1LDM4Ni42ODc1IEwxNjcuNjI1LDM4OC40Mzc1IFogIiBmaWxsPSIjMDAwMDAwIi8+PHRleHQgZmlsbD0iIzAwMDAwMCIgZm9udC1mYW1pbHk9InNhbnMtc2VyaWYiIGZvbnQtc2l6ZT0iMTQiIGxlbmd0aEFkanVzdD0ic3BhY2luZyIgdGV4dExlbmd0aD0iOTkiIHg9IjE4NCIgeT0iMzk3Ljc0MjIiPkRlcGFydG1lbnRIZWFkPC90ZXh0PjxsaW5lIHN0eWxlPSJzdHJva2U6IzE4MTgxODtzdHJva2Utd2lkdGg6MC41OyIgeDE9IjE1NiIgeDI9IjI4NSIgeTE9IjQwOCIgeTI9IjQwOCIvPjxsaW5lIHN0eWxlPSJzdHJva2U6IzE4MTgxODtzdHJva2Utd2lkdGg6MC41OyIgeDE9IjE1NiIgeDI9IjI4NSIgeTE9IjQxNiIgeTI9IjQxNiIvPjwvZz48IS0tY2xhc3MgUHJvZmVzc29yLS0+PGcgaWQ9ImVsZW1fUHJvZmVzc29yIj48cmVjdCBjb2RlTGluZT0iNyIgZmlsbD0iI0YxRjFGMSIgaGVpZ2h0PSI0OCIgaWQ9IlByb2Zlc3NvciIgcng9IjIuNSIgcnk9IjIuNSIgc3R5bGU9InN0cm9rZTojMTgxODE4O3N0cm9rZS13aWR0aDowLjU7IiB3aWR0aD0iOTUiIHg9IjQxNyIgeT0iNTMyIi8+PGVsbGlwc2UgY3g9IjQzMiIgY3k9IjU0OCIgZmlsbD0iI0FERDFCMiIgcng9IjExIiByeT0iMTEiIHN0eWxlPSJzdHJva2U6IzE4MTgxODtzdHJva2Utd2lkdGg6MS4wOyIvPjxwYXRoIGQ9Ik00MjkuNjI1LDU1Mi4yNSBMNDI5LjYyNSw1NTQgTDQzNC41NjI1LDU1NCBMNDM0LjU2MjUsNTUyLjI1IEw0MjkuNjI1LDU1Mi4yNSBaIE00MzAuMzEyNSw1NTIuOTM3NSBRNDMwLjMxMjUsNTUyLjkzNzUgNDMwLjMxMjUsNTQzLjc1IEw0MjguNTYyNSw1NDMuNzUgUTQyOC41NjI1LDU0My43NSA0MjguNTYyNSw1NTIuOTM3NSBMNDMwLjMxMjUsNTUyLjkzNzUgWiBNNDMzLjg3NSw1NTIuOTM3NSBMNDM1LjYyNSw1NTIuOTM3NSBRNDM1LjYyNSw1NTIuOTM3NSA0MzUuNjI1LDU1MC4xMjUgTDQzMy44NzUsNTUwLjEyNSBRNDMzLjg3NSw1NTAuMTI1IDQzMy44NzUsNTUyLjkzNzUgWiBNNDMzLjg3NSw1NDMuNzUgUTQzMy44NzUsNTQzLjc1IDQzMy44NzUsNTQ2LjU2MjUgTDQzNS42MjUsNTQ2LjU2MjUgUTQzNS42MjUsNTQ2LjU2MjUgNDM1LjYyNSw1NDMuNzUgTDQzMy44NzUsNTQzLjc1IFogTTQyOS42MjUsNTQ0LjQzNzUgTDQzNC41NjI1LDU0NC40Mzc1IEw0MzQuNTYyNSw1NDIuNjg3NSBMNDI5LjYyNSw1NDIuNjg3NSBMNDI5LjYyNSw1NDQuNDM3NSBaICIgZmlsbD0iIzAwMDAwMCIvPjx0ZXh0IGZpbGw9IiMwMDAwMDAiIGZvbnQtZmFtaWx5PSJzYW5zLXNlcmlmIiBmb250LXNpemU9IjE0IiBsZW5ndGhBZGp1c3Q9InNwYWNpbmciIHRleHRMZW5ndGg9IjYzIiB4PSI0NDYiIHk9IjU1My43NDIyIj5Qcm9mZXNzb3I8L3RleHQ+PGxpbmUgc3R5bGU9InN0cm9rZTojMTgxODE4O3N0cm9rZS13aWR0aDowLjU7IiB4MT0iNDE4IiB4Mj0iNTExIiB5MT0iNTY0IiB5Mj0iNTY0Ii8+PGxpbmUgc3R5bGU9InN0cm9rZTojMTgxODE4O3N0cm9rZS13aWR0aDowLjU7IiB4MT0iNDE4IiB4Mj0iNTExIiB5MT0iNTcyIiB5Mj0iNTcyIi8+PC9nPjwhLS1jbGFzcyBUZWFjaGluZ0Fzc2lzdGFudC0tPjxnIGlkPSJlbGVtX1RlYWNoaW5nQXNzaXN0YW50Ij48cmVjdCBjb2RlTGluZT0iOCIgZmlsbD0iI0YxRjFGMSIgaGVpZ2h0PSI0OCIgaWQ9IlRlYWNoaW5nQXNzaXN0YW50IiByeD0iMi41IiByeT0iMi41IiBzdHlsZT0ic3Ryb2tlOiMxODE4MTg7c3Ryb2tlLXdpZHRoOjAuNTsiIHdpZHRoPSIxNTEiIHg9IjU4MiIgeT0iNDU0Ii8+PGVsbGlwc2UgY3g9IjU5NyIgY3k9IjQ3MCIgZmlsbD0iI0FERDFCMiIgcng9IjExIiByeT0iMTEiIHN0eWxlPSJzdHJva2U6IzE4MTgxODtzdHJva2Utd2lkdGg6MS4wOyIvPjxwYXRoIGQ9Ik01OTQuNjI1LDQ3NC4yNSBMNTk0LjYyNSw0NzYgTDU5OS41NjI1LDQ3NiBMNTk5LjU2MjUsNDc0LjI1IEw1OTQuNjI1LDQ3NC4yNSBaIE01OTUuMzEyNSw0NzQuOTM3NSBRNTk1LjMxMjUsNDc0LjkzNzUgNTk1LjMxMjUsNDY1Ljc1IEw1OTMuNTYyNSw0NjUuNzUgUTU5My41NjI1LDQ2NS43NSA1OTMuNTYyNSw0NzQuOTM3NSBMNTk1LjMxMjUsNDc0LjkzNzUgWiBNNTk4Ljg3NSw0NzQuOTM3NSBMNjAwLjYyNSw0NzQuOTM3NSBRNjAwLjYyNSw0NzQuOTM3NSA2MDAuNjI1LDQ3Mi4xMjUgTDU5OC44NzUsNDcyLjEyNSBRNTk4Ljg3NSw0NzIuMTI1IDU5OC44NzUsNDc0LjkzNzUgWiBNNTk4Ljg3NSw0NjUuNzUgUTU5OC44NzUsNDY1Ljc1IDU5OC44NzUsNDY4LjU2MjUgTDYwMC42MjUsNDY4LjU2MjUgUTYwMC42MjUsNDY4LjU2MjUgNjAwLjYyNSw0NjUuNzUgTDU5OC44NzUsNDY1Ljc1IFogTTU5NC42MjUsNDY2LjQzNzUgTDU5OS41NjI1LDQ2Ni40Mzc1IEw1OTkuNTYyNSw0NjQuNjg3NSBMNTk0LjYyNSw0NjQuNjg3NSBMNTk0LjYyNSw0NjYuNDM3NSBaICIgZmlsbD0iIzAwMDAwMCIvPjx0ZXh0IGZpbGw9IiMwMDAwMDAiIGZvbnQtZmFtaWx5PSJzYW5zLXNlcmlmIiBmb250LXNpemU9IjE0IiBsZW5ndGhBZGp1c3Q9InNwYWNpbmciIHRleHRMZW5ndGg9IjExOSIgeD0iNjExIiB5PSI0NzUuNzQyMiI+VGVhY2hpbmdBc3Npc3RhbnQ8L3RleHQ+PGxpbmUgc3R5bGU9InN0cm9rZTojMTgxODE4O3N0cm9rZS13aWR0aDowLjU7IiB4MT0iNTgzIiB4Mj0iNzMyIiB5MT0iNDg2IiB5Mj0iNDg2Ii8+PGxpbmUgc3R5bGU9InN0cm9rZTojMTgxODE4O3N0cm9rZS13aWR0aDowLjU7IiB4MT0iNTgzIiB4Mj0iNzMyIiB5MT0iNDk0IiB5Mj0iNDk0Ii8+PC9nPjwhLS1jbGFzcyBDb3Vyc2UtLT48ZyBpZD0iZWxlbV9Db3Vyc2UiPjxyZWN0IGNvZGVMaW5lPSI5IiBmaWxsPSIjRjFGMUYxIiBoZWlnaHQ9IjQ4IiBpZD0iQ291cnNlIiByeD0iMi41IiByeT0iMi41IiBzdHlsZT0ic3Ryb2tlOiMxODE4MTg7c3Ryb2tlLXdpZHRoOjAuNTsiIHdpZHRoPSI3NCIgeD0iNDI3LjUiIHk9IjY1NSIvPjxlbGxpcHNlIGN4PSI0NDIuNSIgY3k9IjY3MSIgZmlsbD0iI0FERDFCMiIgcng9IjExIiByeT0iMTEiIHN0eWxlPSJzdHJva2U6IzE4MTgxODtzdHJva2Utd2lkdGg6MS4wOyIvPjxwYXRoIGQ9Ik00NDAuMTI1LDY3NS4yNSBMNDQwLjEyNSw2NzcgTDQ0NS4wNjI1LDY3NyBMNDQ1LjA2MjUsNjc1LjI1IEw0NDAuMTI1LDY3NS4yNSBaIE00NDAuODEyNSw2NzUuOTM3NSBRNDQwLjgxMjUsNjc1LjkzNzUgNDQwLjgxMjUsNjY2Ljc1IEw0MzkuMDYyNSw2NjYuNzUgUTQzOS4wNjI1LDY2Ni43NSA0MzkuMDYyNSw2NzUuOTM3NSBMNDQwLjgxMjUsNjc1LjkzNzUgWiBNNDQ0LjM3NSw2NzUuOTM3NSBMNDQ2LjEyNSw2NzUuOTM3NSBRNDQ2LjEyNSw2NzUuOTM3NSA0NDYuMTI1LDY3My4xMjUgTDQ0NC4zNzUsNjczLjEyNSBRNDQ0LjM3NSw2NzMuMTI1IDQ0NC4zNzUsNjc1LjkzNzUgWiBNNDQ0LjM3NSw2NjYuNzUgUTQ0NC4zNzUsNjY2Ljc1IDQ0NC4zNzUsNjY5LjU2MjUgTDQ0Ni4xMjUsNjY5LjU2MjUgUTQ0Ni4xMjUsNjY5LjU2MjUgNDQ2LjEyNSw2NjYuNzUgTDQ0NC4zNzUsNjY2Ljc1IFogTTQ0MC4xMjUsNjY3LjQzNzUgTDQ0NS4wNjI1LDY2Ny40Mzc1IEw0NDUuMDYyNSw2NjUuNjg3NSBMNDQwLjEyNSw2NjUuNjg3NSBMNDQwLjEyNSw2NjcuNDM3NSBaICIgZmlsbD0iIzAwMDAwMCIvPjx0ZXh0IGZpbGw9IiMwMDAwMDAiIGZvbnQtZmFtaWx5PSJzYW5zLXNlcmlmIiBmb250LXNpemU9IjE0IiBsZW5ndGhBZGp1c3Q9InNwYWNpbmciIHRleHRMZW5ndGg9IjQyIiB4PSI0NTYuNSIgeT0iNjc2Ljc0MjIiPkNvdXJzZTwvdGV4dD48bGluZSBzdHlsZT0ic3Ryb2tlOiMxODE4MTg7c3Ryb2tlLXdpZHRoOjAuNTsiIHgxPSI0MjguNSIgeDI9IjUwMC41IiB5MT0iNjg3IiB5Mj0iNjg3Ii8+PGxpbmUgc3R5bGU9InN0cm9rZTojMTgxODE4O3N0cm9rZS13aWR0aDowLjU7IiB4MT0iNDI4LjUiIHgyPSI1MDAuNSIgeTE9IjY5NSIgeTI9IjY5NSIvPjwvZz48IS0tY2xhc3MgVW5kZXJncmFkdWF0ZUNvdXJzZS0tPjxnIGlkPSJlbGVtX1VuZGVyZ3JhZHVhdGVDb3Vyc2UiPjxyZWN0IGNvZGVMaW5lPSIxMCIgZmlsbD0iI0YxRjFGMSIgaGVpZ2h0PSI0OCIgaWQ9IlVuZGVyZ3JhZHVhdGVDb3Vyc2UiIHJ4PSIyLjUiIHJ5PSIyLjUiIHN0eWxlPSJzdHJva2U6IzE4MTgxODtzdHJva2Utd2lkdGg6MC41OyIgd2lkdGg9IjE2NSIgeD0iNyIgeT0iNzc4Ii8+PGVsbGlwc2UgY3g9IjIyIiBjeT0iNzk0IiBmaWxsPSIjQUREMUIyIiByeD0iMTEiIHJ5PSIxMSIgc3R5bGU9InN0cm9rZTojMTgxODE4O3N0cm9rZS13aWR0aDoxLjA7Ii8+PHBhdGggZD0iTTE5LjYyNSw3OTguMjUgTDE5LjYyNSw4MDAgTDI0LjU2MjUsODAwIEwyNC41NjI1LDc5OC4yNSBMMTkuNjI1LDc5OC4yNSBaIE0yMC4zMTI1LDc5OC45Mzc1IFEyMC4zMTI1LDc5OC45Mzc1IDIwLjMxMjUsNzg5Ljc1IEwxOC41NjI1LDc4OS43NSBRMTguNTYyNSw3ODkuNzUgMTguNTYyNSw3OTguOTM3NSBMMjAuMzEyNSw3OTguOTM3NSBaIE0yMy44NzUsNzk4LjkzNzUgTDI1LjYyNSw3OTguOTM3NSBRMjUuNjI1LDc5OC45Mzc1IDI1LjYyNSw3OTYuMTI1IEwyMy44NzUsNzk2LjEyNSBRMjMuODc1LDc5Ni4xMjUgMjMuODc1LDc5OC45Mzc1IFogTTIzLjg3NSw3ODkuNzUgUTIzLjg3NSw3ODkuNzUgMjMuODc1LDc5Mi41NjI1IEwyNS42MjUsNzkyLjU2MjUgUTI1LjYyNSw3OTIuNTYyNSAyNS42MjUsNzg5Ljc1IEwyMy44NzUsNzg5Ljc1IFogTTE5LjYyNSw3OTAuNDM3NSBMMjQuNTYyNSw3OTAuNDM3NSBMMjQuNTYyNSw3ODguNjg3NSBMMTkuNjI1LDc4OC42ODc1IEwxOS42MjUsNzkwLjQzNzUgWiAiIGZpbGw9IiMwMDAwMDAiLz48dGV4dCBmaWxsPSIjMDAwMDAwIiBmb250LWZhbWlseT0ic2Fucy1zZXJpZiIgZm9udC1zaXplPSIxNCIgbGVuZ3RoQWRqdXN0PSJzcGFjaW5nIiB0ZXh0TGVuZ3RoPSIxMzMiIHg9IjM2IiB5PSI3OTkuNzQyMiI+VW5kZXJncmFkdWF0ZUNvdXJzZTwvdGV4dD48bGluZSBzdHlsZT0ic3Ryb2tlOiMxODE4MTg7c3Ryb2tlLXdpZHRoOjAuNTsiIHgxPSI4IiB4Mj0iMTcxIiB5MT0iODEwIiB5Mj0iODEwIi8+PGxpbmUgc3R5bGU9InN0cm9rZTojMTgxODE4O3N0cm9rZS13aWR0aDowLjU7IiB4MT0iOCIgeDI9IjE3MSIgeTE9IjgxOCIgeTI9IjgxOCIvPjwvZz48IS0tY2xhc3MgR3JhZHVhdGVDb3Vyc2UtLT48ZyBpZD0iZWxlbV9HcmFkdWF0ZUNvdXJzZSI+PHJlY3QgY29kZUxpbmU9IjExIiBmaWxsPSIjRjFGMUYxIiBoZWlnaHQ9IjQ4IiBpZD0iR3JhZHVhdGVDb3Vyc2UiIHJ4PSIyLjUiIHJ5PSIyLjUiIHN0eWxlPSJzdHJva2U6IzE4MTgxODtzdHJva2Utd2lkdGg6MC41OyIgd2lkdGg9IjEzMCIgeD0iMjA3LjUiIHk9Ijc3OCIvPjxlbGxpcHNlIGN4PSIyMjIuNSIgY3k9Ijc5NCIgZmlsbD0iI0FERDFCMiIgcng9IjExIiByeT0iMTEiIHN0eWxlPSJzdHJva2U6IzE4MTgxODtzdHJva2Utd2lkdGg6MS4wOyIvPjxwYXRoIGQ9Ik0yMjAuMTI1LDc5OC4yNSBMMjIwLjEyNSw4MDAgTDIyNS4wNjI1LDgwMCBMMjI1LjA2MjUsNzk4LjI1IEwyMjAuMTI1LDc5OC4yNSBaIE0yMjAuODEyNSw3OTguOTM3NSBRMjIwLjgxMjUsNzk4LjkzNzUgMjIwLjgxMjUsNzg5Ljc1IEwyMTkuMDYyNSw3ODkuNzUgUTIxOS4wNjI1LDc4OS43NSAyMTkuMDYyNSw3OTguOTM3NSBMMjIwLjgxMjUsNzk4LjkzNzUgWiBNMjI0LjM3NSw3OTguOTM3NSBMMjI2LjEyNSw3OTguOTM3NSBRMjI2LjEyNSw3OTguOTM3NSAyMjYuMTI1LDc5Ni4xMjUgTDIyNC4zNzUsNzk2LjEyNSBRMjI0LjM3NSw3OTYuMTI1IDIyNC4zNzUsNzk4LjkzNzUgWiBNMjI0LjM3NSw3ODkuNzUgUTIyNC4zNzUsNzg5Ljc1IDIyNC4zNzUsNzkyLjU2MjUgTDIyNi4xMjUsNzkyLjU2MjUgUTIyNi4xMjUsNzkyLjU2MjUgMjI2LjEyNSw3ODkuNzUgTDIyNC4zNzUsNzg5Ljc1IFogTTIyMC4xMjUsNzkwLjQzNzUgTDIyNS4wNjI1LDc5MC40Mzc1IEwyMjUuMDYyNSw3ODguNjg3NSBMMjIwLjEyNSw3ODguNjg3NSBMMjIwLjEyNSw3OTAuNDM3NSBaICIgZmlsbD0iIzAwMDAwMCIvPjx0ZXh0IGZpbGw9IiMwMDAwMDAiIGZvbnQtZmFtaWx5PSJzYW5zLXNlcmlmIiBmb250LXNpemU9IjE0IiBsZW5ndGhBZGp1c3Q9InNwYWNpbmciIHRleHRMZW5ndGg9Ijk4IiB4PSIyMzYuNSIgeT0iNzk5Ljc0MjIiPkdyYWR1YXRlQ291cnNlPC90ZXh0PjxsaW5lIHN0eWxlPSJzdHJva2U6IzE4MTgxODtzdHJva2Utd2lkdGg6MC41OyIgeDE9IjIwOC41IiB4Mj0iMzM2LjUiIHkxPSI4MTAiIHkyPSI4MTAiLz48bGluZSBzdHlsZT0ic3Ryb2tlOiMxODE4MTg7c3Ryb2tlLXdpZHRoOjAuNTsiIHgxPSIyMDguNSIgeDI9IjMzNi41IiB5MT0iODE4IiB5Mj0iODE4Ii8+PC9nPjwhLS1jbGFzcyBTdHVkZW50LS0+PGcgaWQ9ImVsZW1fU3R1ZGVudCI+PHJlY3QgY29kZUxpbmU9IjEyIiBmaWxsPSIjRjFGMUYxIiBoZWlnaHQ9IjQ4IiBpZD0iU3R1ZGVudCIgcng9IjIuNSIgcnk9IjIuNSIgc3R5bGU9InN0cm9rZTojMTgxODE4O3N0cm9rZS13aWR0aDowLjU7IiB3aWR0aD0iODEiIHg9IjcyMCIgeT0iNTMyIi8+PGVsbGlwc2UgY3g9IjczNSIgY3k9IjU0OCIgZmlsbD0iI0FERDFCMiIgcng9IjExIiByeT0iMTEiIHN0eWxlPSJzdHJva2U6IzE4MTgxODtzdHJva2Utd2lkdGg6MS4wOyIvPjxwYXRoIGQ9Ik03MzIuNjI1LDU1Mi4yNSBMNzMyLjYyNSw1NTQgTDczNy41NjI1LDU1NCBMNzM3LjU2MjUsNTUyLjI1IEw3MzIuNjI1LDU1Mi4yNSBaIE03MzMuMzEyNSw1NTIuOTM3NSBRNzMzLjMxMjUsNTUyLjkzNzUgNzMzLjMxMjUsNTQzLjc1IEw3MzEuNTYyNSw1NDMuNzUgUTczMS41NjI1LDU0My43NSA3MzEuNTYyNSw1NTIuOTM3NSBMNzMzLjMxMjUsNTUyLjkzNzUgWiBNNzM2Ljg3NSw1NTIuOTM3NSBMNzM4LjYyNSw1NTIuOTM3NSBRNzM4LjYyNSw1NTIuOTM3NSA3MzguNjI1LDU1MC4xMjUgTDczNi44NzUsNTUwLjEyNSBRNzM2Ljg3NSw1NTAuMTI1IDczNi44NzUsNTUyLjkzNzUgWiBNNzM2Ljg3NSw1NDMuNzUgUTczNi44NzUsNTQzLjc1IDczNi44NzUsNTQ2LjU2MjUgTDczOC42MjUsNTQ2LjU2MjUgUTczOC42MjUsNTQ2LjU2MjUgNzM4LjYyNSw1NDMuNzUgTDczNi44NzUsNTQzLjc1IFogTTczMi42MjUsNTQ0LjQzNzUgTDczNy41NjI1LDU0NC40Mzc1IEw3MzcuNTYyNSw1NDIuNjg3NSBMNzMyLjYyNSw1NDIuNjg3NSBMNzMyLjYyNSw1NDQuNDM3NSBaICIgZmlsbD0iIzAwMDAwMCIvPjx0ZXh0IGZpbGw9IiMwMDAwMDAiIGZvbnQtZmFtaWx5PSJzYW5zLXNlcmlmIiBmb250LXNpemU9IjE0IiBsZW5ndGhBZGp1c3Q9InNwYWNpbmciIHRleHRMZW5ndGg9IjQ5IiB4PSI3NDkiIHk9IjU1My43NDIyIj5TdHVkZW50PC90ZXh0PjxsaW5lIHN0eWxlPSJzdHJva2U6IzE4MTgxODtzdHJva2Utd2lkdGg6MC41OyIgeDE9IjcyMSIgeDI9IjgwMCIgeTE9IjU2NCIgeTI9IjU2NCIvPjxsaW5lIHN0eWxlPSJzdHJva2U6IzE4MTgxODtzdHJva2Utd2lkdGg6MC41OyIgeDE9IjcyMSIgeDI9IjgwMCIgeTE9IjU3MiIgeTI9IjU3MiIvPjwvZz48IS0tY2xhc3MgUXVpei0tPjxnIGlkPSJlbGVtX1F1aXoiPjxyZWN0IGNvZGVMaW5lPSIxMyIgZmlsbD0iI0YxRjFGMSIgaGVpZ2h0PSI0OCIgaWQ9IlF1aXoiIHJ4PSIyLjUiIHJ5PSIyLjUiIHN0eWxlPSJzdHJva2U6IzE4MTgxODtzdHJva2Utd2lkdGg6MC41OyIgd2lkdGg9IjYwIiB4PSIzNzIuNSIgeT0iNzc4Ii8+PGVsbGlwc2UgY3g9IjM4Ny41IiBjeT0iNzk0IiBmaWxsPSIjQUREMUIyIiByeD0iMTEiIHJ5PSIxMSIgc3R5bGU9InN0cm9rZTojMTgxODE4O3N0cm9rZS13aWR0aDoxLjA7Ii8+PHBhdGggZD0iTTM4NS4xMjUsNzk4LjI1IEwzODUuMTI1LDgwMCBMMzkwLjA2MjUsODAwIEwzOTAuMDYyNSw3OTguMjUgTDM4NS4xMjUsNzk4LjI1IFogTTM4NS44MTI1LDc5OC45Mzc1IFEzODUuODEyNSw3OTguOTM3NSAzODUuODEyNSw3ODkuNzUgTDM4NC4wNjI1LDc4OS43NSBRMzg0LjA2MjUsNzg5Ljc1IDM4NC4wNjI1LDc5OC45Mzc1IEwzODUuODEyNSw3OTguOTM3NSBaIE0zODkuMzc1LDc5OC45Mzc1IEwzOTEuMTI1LDc5OC45Mzc1IFEzOTEuMTI1LDc5OC45Mzc1IDM5MS4xMjUsNzk2LjEyNSBMMzg5LjM3NSw3OTYuMTI1IFEzODkuMzc1LDc5Ni4xMjUgMzg5LjM3NSw3OTguOTM3NSBaIE0zODkuMzc1LDc4OS43NSBRMzg5LjM3NSw3ODkuNzUgMzg5LjM3NSw3OTIuNTYyNSBMMzkxLjEyNSw3OTIuNTYyNSBRMzkxLjEyNSw3OTIuNTYyNSAzOTEuMTI1LDc4OS43NSBMMzg5LjM3NSw3ODkuNzUgWiBNMzg1LjEyNSw3OTAuNDM3NSBMMzkwLjA2MjUsNzkwLjQzNzUgTDM5MC4wNjI1LDc4OC42ODc1IEwzODUuMTI1LDc4OC42ODc1IEwzODUuMTI1LDc5MC40Mzc1IFogIiBmaWxsPSIjMDAwMDAwIi8+PHRleHQgZmlsbD0iIzAwMDAwMCIgZm9udC1mYW1pbHk9InNhbnMtc2VyaWYiIGZvbnQtc2l6ZT0iMTQiIGxlbmd0aEFkanVzdD0ic3BhY2luZyIgdGV4dExlbmd0aD0iMjgiIHg9IjQwMS41IiB5PSI3OTkuNzQyMiI+UXVpejwvdGV4dD48bGluZSBzdHlsZT0ic3Ryb2tlOiMxODE4MTg7c3Ryb2tlLXdpZHRoOjAuNTsiIHgxPSIzNzMuNSIgeDI9IjQzMS41IiB5MT0iODEwIiB5Mj0iODEwIi8+PGxpbmUgc3R5bGU9InN0cm9rZTojMTgxODE4O3N0cm9rZS13aWR0aDowLjU7IiB4MT0iMzczLjUiIHgyPSI0MzEuNSIgeTE9IjgxOCIgeTI9IjgxOCIvPjwvZz48IS0tY2xhc3MgRXhhbS0tPjxnIGlkPSJlbGVtX0V4YW0iPjxyZWN0IGNvZGVMaW5lPSIxNCIgZmlsbD0iI0YxRjFGMSIgaGVpZ2h0PSI0OCIgaWQ9IkV4YW0iIHJ4PSIyLjUiIHJ5PSIyLjUiIHN0eWxlPSJzdHJva2U6IzE4MTgxODtzdHJva2Utd2lkdGg6MC41OyIgd2lkdGg9IjYxIiB4PSI0NjgiIHk9Ijc3OCIvPjxlbGxpcHNlIGN4PSI0ODMiIGN5PSI3OTQiIGZpbGw9IiNBREQxQjIiIHJ4PSIxMSIgcnk9IjExIiBzdHlsZT0ic3Ryb2tlOiMxODE4MTg7c3Ryb2tlLXdpZHRoOjEuMDsiLz48cGF0aCBkPSJNNDgwLjYyNSw3OTguMjUgTDQ4MC42MjUsODAwIEw0ODUuNTYyNSw4MDAgTDQ4NS41NjI1LDc5OC4yNSBMNDgwLjYyNSw3OTguMjUgWiBNNDgxLjMxMjUsNzk4LjkzNzUgUTQ4MS4zMTI1LDc5OC45Mzc1IDQ4MS4zMTI1LDc4OS43NSBMNDc5LjU2MjUsNzg5Ljc1IFE0NzkuNTYyNSw3ODkuNzUgNDc5LjU2MjUsNzk4LjkzNzUgTDQ4MS4zMTI1LDc5OC45Mzc1IFogTTQ4NC44NzUsNzk4LjkzNzUgTDQ4Ni42MjUsNzk4LjkzNzUgUTQ4Ni42MjUsNzk4LjkzNzUgNDg2LjYyNSw3OTYuMTI1IEw0ODQuODc1LDc5Ni4xMjUgUTQ4NC44NzUsNzk2LjEyNSA0ODQuODc1LDc5OC45Mzc1IFogTTQ4NC44NzUsNzg5Ljc1IFE0ODQuODc1LDc4OS43NSA0ODQuODc1LDc5Mi41NjI1IEw0ODYuNjI1LDc5Mi41NjI1IFE0ODYuNjI1LDc5Mi41NjI1IDQ4Ni42MjUsNzg5Ljc1IEw0ODQuODc1LDc4OS43NSBaIE00ODAuNjI1LDc5MC40Mzc1IEw0ODUuNTYyNSw3OTAuNDM3NSBMNDg1LjU2MjUsNzg4LjY4NzUgTDQ4MC42MjUsNzg4LjY4NzUgTDQ4MC42MjUsNzkwLjQzNzUgWiAiIGZpbGw9IiMwMDAwMDAiLz48dGV4dCBmaWxsPSIjMDAwMDAwIiBmb250LWZhbWlseT0ic2Fucy1zZXJpZiIgZm9udC1zaXplPSIxNCIgbGVuZ3RoQWRqdXN0PSJzcGFjaW5nIiB0ZXh0TGVuZ3RoPSIyOSIgeD0iNDk3IiB5PSI3OTkuNzQyMiI+RXhhbTwvdGV4dD48bGluZSBzdHlsZT0ic3Ryb2tlOiMxODE4MTg7c3Ryb2tlLXdpZHRoOjAuNTsiIHgxPSI0NjkiIHgyPSI1MjgiIHkxPSI4MTAiIHkyPSI4MTAiLz48bGluZSBzdHlsZT0ic3Ryb2tlOiMxODE4MTg7c3Ryb2tlLXdpZHRoOjAuNTsiIHgxPSI0NjkiIHgyPSI1MjgiIHkxPSI4MTgiIHkyPSI4MTgiLz48L2c+PCEtLWNsYXNzIEJ1aWxkaW5nLS0+PGcgaWQ9ImVsZW1fQnVpbGRpbmciPjxyZWN0IGNvZGVMaW5lPSIxNSIgZmlsbD0iI0YxRjFGMSIgaGVpZ2h0PSI0OCIgaWQ9IkJ1aWxkaW5nIiByeD0iMi41IiByeT0iMi41IiBzdHlsZT0ic3Ryb2tlOiMxODE4MTg7c3Ryb2tlLXdpZHRoOjAuNTsiIHdpZHRoPSI4OCIgeD0iNjM5LjUiIHk9IjY1NSIvPjxlbGxpcHNlIGN4PSI2NTQuNSIgY3k9IjY3MSIgZmlsbD0iI0FERDFCMiIgcng9IjExIiByeT0iMTEiIHN0eWxlPSJzdHJva2U6IzE4MTgxODtzdHJva2Utd2lkdGg6MS4wOyIvPjxwYXRoIGQ9Ik02NTIuMTI1LDY3NS4yNSBMNjUyLjEyNSw2NzcgTDY1Ny4wNjI1LDY3NyBMNjU3LjA2MjUsNjc1LjI1IEw2NTIuMTI1LDY3NS4yNSBaIE02NTIuODEyNSw2NzUuOTM3NSBRNjUyLjgxMjUsNjc1LjkzNzUgNjUyLjgxMjUsNjY2Ljc1IEw2NTEuMDYyNSw2NjYuNzUgUTY1MS4wNjI1LDY2Ni43NSA2NTEuMDYyNSw2NzUuOTM3NSBMNjUyLjgxMjUsNjc1LjkzNzUgWiBNNjU2LjM3NSw2NzUuOTM3NSBMNjU4LjEyNSw2NzUuOTM3NSBRNjU4LjEyNSw2NzUuOTM3NSA2NTguMTI1LDY3My4xMjUgTDY1Ni4zNzUsNjczLjEyNSBRNjU2LjM3NSw2NzMuMTI1IDY1Ni4zNzUsNjc1LjkzNzUgWiBNNjU2LjM3NSw2NjYuNzUgUTY1Ni4zNzUsNjY2Ljc1IDY1Ni4zNzUsNjY5LjU2MjUgTDY1OC4xMjUsNjY5LjU2MjUgUTY1OC4xMjUsNjY5LjU2MjUgNjU4LjEyNSw2NjYuNzUgTDY1Ni4zNzUsNjY2Ljc1IFogTTY1Mi4xMjUsNjY3LjQzNzUgTDY1Ny4wNjI1LDY2Ny40Mzc1IEw2NTcuMDYyNSw2NjUuNjg3NSBMNjUyLjEyNSw2NjUuNjg3NSBMNjUyLjEyNSw2NjcuNDM3NSBaICIgZmlsbD0iIzAwMDAwMCIvPjx0ZXh0IGZpbGw9IiMwMDAwMDAiIGZvbnQtZmFtaWx5PSJzYW5zLXNlcmlmIiBmb250LXNpemU9IjE0IiBsZW5ndGhBZGp1c3Q9InNwYWNpbmciIHRleHRMZW5ndGg9IjU2IiB4PSI2NjguNSIgeT0iNjc2Ljc0MjIiPkJ1aWxkaW5nPC90ZXh0PjxsaW5lIHN0eWxlPSJzdHJva2U6IzE4MTgxODtzdHJva2Utd2lkdGg6MC41OyIgeDE9IjY0MC41IiB4Mj0iNzI2LjUiIHkxPSI2ODciIHkyPSI2ODciLz48bGluZSBzdHlsZT0ic3Ryb2tlOiMxODE4MTg7c3Ryb2tlLXdpZHRoOjAuNTsiIHgxPSI2NDAuNSIgeDI9IjcyNi41IiB5MT0iNjk1IiB5Mj0iNjk1Ii8+PC9nPjwhLS1jbGFzcyBDbGFzc3Jvb20tLT48ZyBpZD0iZWxlbV9DbGFzc3Jvb20iPjxyZWN0IGNvZGVMaW5lPSIxNiIgZmlsbD0iI0YxRjFGMSIgaGVpZ2h0PSI0OCIgaWQ9IkNsYXNzcm9vbSIgcng9IjIuNSIgcnk9IjIuNSIgc3R5bGU9InN0cm9rZTojMTgxODE4O3N0cm9rZS13aWR0aDowLjU7IiB3aWR0aD0iOTYiIHg9IjYwMC41IiB5PSI3NzgiLz48ZWxsaXBzZSBjeD0iNjE1LjUiIGN5PSI3OTQiIGZpbGw9IiNBREQxQjIiIHJ4PSIxMSIgcnk9IjExIiBzdHlsZT0ic3Ryb2tlOiMxODE4MTg7c3Ryb2tlLXdpZHRoOjEuMDsiLz48cGF0aCBkPSJNNjEzLjEyNSw3OTguMjUgTDYxMy4xMjUsODAwIEw2MTguMDYyNSw4MDAgTDYxOC4wNjI1LDc5OC4yNSBMNjEzLjEyNSw3OTguMjUgWiBNNjEzLjgxMjUsNzk4LjkzNzUgUTYxMy44MTI1LDc5OC45Mzc1IDYxMy44MTI1LDc4OS43NSBMNjEyLjA2MjUsNzg5Ljc1IFE2MTIuMDYyNSw3ODkuNzUgNjEyLjA2MjUsNzk4LjkzNzUgTDYxMy44MTI1LDc5OC45Mzc1IFogTTYxNy4zNzUsNzk4LjkzNzUgTDYxOS4xMjUsNzk4LjkzNzUgUTYxOS4xMjUsNzk4LjkzNzUgNjE5LjEyNSw3OTYuMTI1IEw2MTcuMzc1LDc5Ni4xMjUgUTYxNy4zNzUsNzk2LjEyNSA2MTcuMzc1LDc5OC45Mzc1IFogTTYxNy4zNzUsNzg5Ljc1IFE2MTcuMzc1LDc4OS43NSA2MTcuMzc1LDc5Mi41NjI1IEw2MTkuMTI1LDc5Mi41NjI1IFE2MTkuMTI1LDc5Mi41NjI1IDYxOS4xMjUsNzg5Ljc1IEw2MTcuMzc1LDc4OS43NSBaIE02MTMuMTI1LDc5MC40Mzc1IEw2MTguMDYyNSw3OTAuNDM3NSBMNjE4LjA2MjUsNzg4LjY4NzUgTDYxMy4xMjUsNzg4LjY4NzUgTDYxMy4xMjUsNzkwLjQzNzUgWiAiIGZpbGw9IiMwMDAwMDAiLz48dGV4dCBmaWxsPSIjMDAwMDAwIiBmb250LWZhbWlseT0ic2Fucy1zZXJpZiIgZm9udC1zaXplPSIxNCIgbGVuZ3RoQWRqdXN0PSJzcGFjaW5nIiB0ZXh0TGVuZ3RoPSI2NCIgeD0iNjI5LjUiIHk9Ijc5OS43NDIyIj5DbGFzc3Jvb208L3RleHQ+PGxpbmUgc3R5bGU9InN0cm9rZTojMTgxODE4O3N0cm9rZS13aWR0aDowLjU7IiB4MT0iNjAxLjUiIHgyPSI2OTUuNSIgeTE9IjgxMCIgeTI9IjgxMCIvPjxsaW5lIHN0eWxlPSJzdHJva2U6IzE4MTgxODtzdHJva2Utd2lkdGg6MC41OyIgeDE9IjYwMS41IiB4Mj0iNjk1LjUiIHkxPSI4MTgiIHkyPSI4MTgiLz48L2c+PCEtLWNsYXNzIENvbW1pdHRlZS0tPjxnIGlkPSJlbGVtX0NvbW1pdHRlZSI+PHJlY3QgY29kZUxpbmU9IjE3IiBmaWxsPSIjRjFGMUYxIiBoZWlnaHQ9IjQ4IiBpZD0iQ29tbWl0dGVlIiByeD0iMi41IiByeT0iMi41IiBzdHlsZT0ic3Ryb2tlOiMxODE4MTg7c3Ryb2tlLXdpZHRoOjAuNTsiIHdpZHRoPSI5NyIgeD0iNTEyIiB5PSIzNzYiLz48ZWxsaXBzZSBjeD0iNTI3IiBjeT0iMzkyIiBmaWxsPSIjQUREMUIyIiByeD0iMTEiIHJ5PSIxMSIgc3R5bGU9InN0cm9rZTojMTgxODE4O3N0cm9rZS13aWR0aDoxLjA7Ii8+PHBhdGggZD0iTTUyNC42MjUsMzk2LjI1IEw1MjQuNjI1LDM5OCBMNTI5LjU2MjUsMzk4IEw1MjkuNTYyNSwzOTYuMjUgTDUyNC42MjUsMzk2LjI1IFogTTUyNS4zMTI1LDM5Ni45Mzc1IFE1MjUuMzEyNSwzOTYuOTM3NSA1MjUuMzEyNSwzODcuNzUgTDUyMy41NjI1LDM4Ny43NSBRNTIzLjU2MjUsMzg3Ljc1IDUyMy41NjI1LDM5Ni45Mzc1IEw1MjUuMzEyNSwzOTYuOTM3NSBaIE01MjguODc1LDM5Ni45Mzc1IEw1MzAuNjI1LDM5Ni45Mzc1IFE1MzAuNjI1LDM5Ni45Mzc1IDUzMC42MjUsMzk0LjEyNSBMNTI4Ljg3NSwzOTQuMTI1IFE1MjguODc1LDM5NC4xMjUgNTI4Ljg3NSwzOTYuOTM3NSBaIE01MjguODc1LDM4Ny43NSBRNTI4Ljg3NSwzODcuNzUgNTI4Ljg3NSwzOTAuNTYyNSBMNTMwLjYyNSwzOTAuNTYyNSBRNTMwLjYyNSwzOTAuNTYyNSA1MzAuNjI1LDM4Ny43NSBMNTI4Ljg3NSwzODcuNzUgWiBNNTI0LjYyNSwzODguNDM3NSBMNTI5LjU2MjUsMzg4LjQzNzUgTDUyOS41NjI1LDM4Ni42ODc1IEw1MjQuNjI1LDM4Ni42ODc1IEw1MjQuNjI1LDM4OC40Mzc1IFogIiBmaWxsPSIjMDAwMDAwIi8+PHRleHQgZmlsbD0iIzAwMDAwMCIgZm9udC1mYW1pbHk9InNhbnMtc2VyaWYiIGZvbnQtc2l6ZT0iMTQiIGxlbmd0aEFkanVzdD0ic3BhY2luZyIgdGV4dExlbmd0aD0iNjUiIHg9IjU0MSIgeT0iMzk3Ljc0MjIiPkNvbW1pdHRlZTwvdGV4dD48bGluZSBzdHlsZT0ic3Ryb2tlOiMxODE4MTg7c3Ryb2tlLXdpZHRoOjAuNTsiIHgxPSI1MTMiIHgyPSI2MDgiIHkxPSI0MDgiIHkyPSI0MDgiLz48bGluZSBzdHlsZT0ic3Ryb2tlOiMxODE4MTg7c3Ryb2tlLXdpZHRoOjAuNTsiIHgxPSI1MTMiIHgyPSI2MDgiIHkxPSI0MTYiIHkyPSI0MTYiLz48L2c+PCEtLWNsYXNzIFNjaG9vbENhdGFsb2ctLT48ZyBpZD0iZWxlbV9TY2hvb2xDYXRhbG9nIj48cmVjdCBjb2RlTGluZT0iMTgiIGZpbGw9IiNGMUYxRjEiIGhlaWdodD0iNDgiIGlkPSJTY2hvb2xDYXRhbG9nIiByeD0iMi41IiByeT0iMi41IiBzdHlsZT0ic3Ryb2tlOiMxODE4MTg7c3Ryb2tlLXdpZHRoOjAuNTsiIHdpZHRoPSIxMjMiIHg9IjcxNiIgeT0iMzc2Ii8+PGVsbGlwc2UgY3g9IjczMSIgY3k9IjM5MiIgZmlsbD0iI0FERDFCMiIgcng9IjExIiByeT0iMTEiIHN0eWxlPSJzdHJva2U6IzE4MTgxODtzdHJva2Utd2lkdGg6MS4wOyIvPjxwYXRoIGQ9Ik03MjguNjI1LDM5Ni4yNSBMNzI4LjYyNSwzOTggTDczMy41NjI1LDM5OCBMNzMzLjU2MjUsMzk2LjI1IEw3MjguNjI1LDM5Ni4yNSBaIE03MjkuMzEyNSwzOTYuOTM3NSBRNzI5LjMxMjUsMzk2LjkzNzUgNzI5LjMxMjUsMzg3Ljc1IEw3MjcuNTYyNSwzODcuNzUgUTcyNy41NjI1LDM4Ny43NSA3MjcuNTYyNSwzOTYuOTM3NSBMNzI5LjMxMjUsMzk2LjkzNzUgWiBNNzMyLjg3NSwzOTYuOTM3NSBMNzM0LjYyNSwzOTYuOTM3NSBRNzM0LjYyNSwzOTYuOTM3NSA3MzQuNjI1LDM5NC4xMjUgTDczMi44NzUsMzk0LjEyNSBRNzMyLjg3NSwzOTQuMTI1IDczMi44NzUsMzk2LjkzNzUgWiBNNzMyLjg3NSwzODcuNzUgUTczMi44NzUsMzg3Ljc1IDczMi44NzUsMzkwLjU2MjUgTDczNC42MjUsMzkwLjU2MjUgUTczNC42MjUsMzkwLjU2MjUgNzM0LjYyNSwzODcuNzUgTDczMi44NzUsMzg3Ljc1IFogTTcyOC42MjUsMzg4LjQzNzUgTDczMy41NjI1LDM4OC40Mzc1IEw3MzMuNTYyNSwzODYuNjg3NSBMNzI4LjYyNSwzODYuNjg3NSBMNzI4LjYyNSwzODguNDM3NSBaICIgZmlsbD0iIzAwMDAwMCIvPjx0ZXh0IGZpbGw9IiMwMDAwMDAiIGZvbnQtZmFtaWx5PSJzYW5zLXNlcmlmIiBmb250LXNpemU9IjE0IiBsZW5ndGhBZGp1c3Q9InNwYWNpbmciIHRleHRMZW5ndGg9IjkxIiB4PSI3NDUiIHk9IjM5Ny43NDIyIj5TY2hvb2xDYXRhbG9nPC90ZXh0PjxsaW5lIHN0eWxlPSJzdHJva2U6IzE4MTgxODtzdHJva2Utd2lkdGg6MC41OyIgeDE9IjcxNyIgeDI9IjgzOCIgeTE9IjQwOCIgeTI9IjQwOCIvPjxsaW5lIHN0eWxlPSJzdHJva2U6IzE4MTgxODtzdHJva2Utd2lkdGg6MC41OyIgeDE9IjcxNyIgeDI9IjgzOCIgeTE9IjQxNiIgeTI9IjQxNiIvPjwvZz48IS0tY2xhc3MgRGVncmVlLS0+PGcgaWQ9ImVsZW1fRGVncmVlIj48cmVjdCBjb2RlTGluZT0iMTkiIGZpbGw9IiNGMUYxRjEiIGhlaWdodD0iNDgiIGlkPSJEZWdyZWUiIHJ4PSIyLjUiIHJ5PSIyLjUiIHN0eWxlPSJzdHJva2U6IzE4MTgxODtzdHJva2Utd2lkdGg6MC41OyIgd2lkdGg9Ijc0IiB4PSI3NjIuNSIgeT0iNjU1Ii8+PGVsbGlwc2UgY3g9Ijc3Ny41IiBjeT0iNjcxIiBmaWxsPSIjQUREMUIyIiByeD0iMTEiIHJ5PSIxMSIgc3R5bGU9InN0cm9rZTojMTgxODE4O3N0cm9rZS13aWR0aDoxLjA7Ii8+PHBhdGggZD0iTTc3NS4xMjUsNjc1LjI1IEw3NzUuMTI1LDY3NyBMNzgwLjA2MjUsNjc3IEw3ODAuMDYyNSw2NzUuMjUgTDc3NS4xMjUsNjc1LjI1IFogTTc3NS44MTI1LDY3NS45Mzc1IFE3NzUuODEyNSw2NzUuOTM3NSA3NzUuODEyNSw2NjYuNzUgTDc3NC4wNjI1LDY2Ni43NSBRNzc0LjA2MjUsNjY2Ljc1IDc3NC4wNjI1LDY3NS45Mzc1IEw3NzUuODEyNSw2NzUuOTM3NSBaIE03NzkuMzc1LDY3NS45Mzc1IEw3ODEuMTI1LDY3NS45Mzc1IFE3ODEuMTI1LDY3NS45Mzc1IDc4MS4xMjUsNjczLjEyNSBMNzc5LjM3NSw2NzMuMTI1IFE3NzkuMzc1LDY3My4xMjUgNzc5LjM3NSw2NzUuOTM3NSBaIE03NzkuMzc1LDY2Ni43NSBRNzc5LjM3NSw2NjYuNzUgNzc5LjM3NSw2NjkuNTYyNSBMNzgxLjEyNSw2NjkuNTYyNSBRNzgxLjEyNSw2NjkuNTYyNSA3ODEuMTI1LDY2Ni43NSBMNzc5LjM3NSw2NjYuNzUgWiBNNzc1LjEyNSw2NjcuNDM3NSBMNzgwLjA2MjUsNjY3LjQzNzUgTDc4MC4wNjI1LDY2NS42ODc1IEw3NzUuMTI1LDY2NS42ODc1IEw3NzUuMTI1LDY2Ny40Mzc1IFogIiBmaWxsPSIjMDAwMDAwIi8+PHRleHQgZmlsbD0iIzAwMDAwMCIgZm9udC1mYW1pbHk9InNhbnMtc2VyaWYiIGZvbnQtc2l6ZT0iMTQiIGxlbmd0aEFkanVzdD0ic3BhY2luZyIgdGV4dExlbmd0aD0iNDIiIHg9Ijc5MS41IiB5PSI2NzYuNzQyMiI+RGVncmVlPC90ZXh0PjxsaW5lIHN0eWxlPSJzdHJva2U6IzE4MTgxODtzdHJva2Utd2lkdGg6MC41OyIgeDE9Ijc2My41IiB4Mj0iODM1LjUiIHkxPSI2ODciIHkyPSI2ODciLz48bGluZSBzdHlsZT0ic3Ryb2tlOiMxODE4MTg7c3Ryb2tlLXdpZHRoOjAuNTsiIHgxPSI3NjMuNSIgeDI9IjgzNS41IiB5MT0iNjk1IiB5Mj0iNjk1Ii8+PC9nPjwhLS1saW5rIFVuaXZlcnNpdHkgdG8gU2Nob29sLS0+PGcgaWQ9ImxpbmtfVW5pdmVyc2l0eV9TY2hvb2wiPjxwYXRoIGNvZGVMaW5lPSIyMiIgZD0iTTU1Mi41LDU1LjA0IEM1NTIuNSw3Ni40NCA1NTIuNSwxMDguMTMgNTUyLjUsMTI5LjYzICIgZmlsbD0ibm9uZSIgaWQ9IlVuaXZlcnNpdHktU2Nob29sIiBzdHlsZT0ic3Ryb2tlOiMxODE4MTg7c3Ryb2tlLXdpZHRoOjEuMDsiLz48dGV4dCBmaWxsPSIjMDAwMDAwIiBmb250LWZhbWlseT0ic2Fucy1zZXJpZiIgZm9udC1zaXplPSIxMyIgbGVuZ3RoQWRqdXN0PSJzcGFjaW5nIiB0ZXh0TGVuZ3RoPSI1NCIgeD0iNTUzLjUiIHk9Ijk4LjI4OTEiPmNvbnRhaW5zPC90ZXh0Pjx0ZXh0IGZpbGw9IiMwMDAwMDAiIGZvbnQtZmFtaWx5PSJzYW5zLXNlcmlmIiBmb250LXNpemU9IjEzIiBsZW5ndGhBZGp1c3Q9InNwYWNpbmciIHRleHRMZW5ndGg9IjciIHg9IjU0NC42MDMxIiB5PSI3NS4yNzIxIj4xPC90ZXh0Pjx0ZXh0IGZpbGw9IiMwMDAwMDAiIGZvbnQtZmFtaWx5PSJzYW5zLXNlcmlmIiBmb250LXNpemU9IjEzIiBsZW5ndGhBZGp1c3Q9InNwYWNpbmciIHRleHRMZW5ndGg9IjI1IiB4PSI1MjMuOTg0NCIgeT0iMTIwLjM2NTQiPjEuLio8L3RleHQ+PC9nPjwhLS1saW5rIFNjaG9vbCB0byBEZXBhcnRtZW50LS0+PGcgaWQ9ImxpbmtfU2Nob29sX0RlcGFydG1lbnQiPjxwYXRoIGNvZGVMaW5lPSIyMyIgZD0iTTUzMy4zNywxNzguMjMgQzUyNi43MSwxODcuMTQgNTE5LjY0LDE5Ny42NiA1MTQuNSwyMDggQzUwNy40MSwyMjIuMjggNTAyLjE0LDIzOS40MyA0OTguNjQsMjUyLjk0ICIgZmlsbD0ibm9uZSIgaWQ9IlNjaG9vbC1EZXBhcnRtZW50IiBzdHlsZT0ic3Ryb2tlOiMxODE4MTg7c3Ryb2tlLXdpZHRoOjEuMDsiLz48dGV4dCBmaWxsPSIjMDAwMDAwIiBmb250LWZhbWlseT0ic2Fucy1zZXJpZiIgZm9udC1zaXplPSIxMyIgbGVuZ3RoQWRqdXN0PSJzcGFjaW5nIiB0ZXh0TGVuZ3RoPSI1NCIgeD0iNTE1LjUiIHk9IjIyMS4yODkxIj5jb250YWluczwvdGV4dD48dGV4dCBmaWxsPSIjMDAwMDAwIiBmb250LWZhbWlseT0ic2Fucy1zZXJpZiIgZm9udC1zaXplPSIxMyIgbGVuZ3RoQWRqdXN0PSJzcGFjaW5nIiB0ZXh0TGVuZ3RoPSI3IiB4PSI1MjAuODUzOSIgeT0iMTk4LjEyMDkiPjE8L3RleHQ+PHRleHQgZmlsbD0iIzAwMDAwMCIgZm9udC1mYW1pbHk9InNhbnMtc2VyaWYiIGZvbnQtc2l6ZT0iMTMiIGxlbmd0aEFkanVzdD0ic3BhY2luZyIgdGV4dExlbmd0aD0iMjUiIHg9IjQ3MS40NzgiIHk9IjI0My4zODYzIj4xLi4qPC90ZXh0PjwvZz48IS0tbGluayBTY2hvb2wgdG8gRGVhbi0tPjxnIGlkPSJsaW5rX1NjaG9vbF9EZWFuIj48cGF0aCBjb2RlTGluZT0iMjQiIGQ9Ik01NjMuNTUsMTc4LjA0IEM1NzMuOCwxOTkuNDQgNTg4Ljk5LDIzMS4xMyA1OTkuMywyNTIuNjMgIiBmaWxsPSJub25lIiBpZD0iU2Nob29sLURlYW4iIHN0eWxlPSJzdHJva2U6IzE4MTgxODtzdHJva2Utd2lkdGg6MS4wOyIvPjx0ZXh0IGZpbGw9IiMwMDAwMDAiIGZvbnQtZmFtaWx5PSJzYW5zLXNlcmlmIiBmb250LXNpemU9IjEzIiBsZW5ndGhBZGp1c3Q9InNwYWNpbmciIHRleHRMZW5ndGg9IjQ4IiB4PSI1ODYuNSIgeT0iMjIxLjI4OTEiPm1hbmFnZXM8L3RleHQ+PHRleHQgZmlsbD0iIzAwMDAwMCIgZm9udC1mYW1pbHk9InNhbnMtc2VyaWYiIGZvbnQtc2l6ZT0iMTMiIGxlbmd0aEFkanVzdD0ic3BhY2luZyIgdGV4dExlbmd0aD0iNyIgeD0iNTU4LjQ4NDciIHk9IjE5OC4yNzIxIj4xPC90ZXh0Pjx0ZXh0IGZpbGw9IiMwMDAwMDAiIGZvbnQtZmFtaWx5PSJzYW5zLXNlcmlmIiBmb250LXNpemU9IjEzIiBsZW5ndGhBZGp1c3Q9InNwYWNpbmciIHRleHRMZW5ndGg9IjciIHg9IjU4OC4xNjU2IiB5PSIyNDMuMzY1NCI+MTwvdGV4dD48L2c+PCEtLWxpbmsgRGVwYXJ0bWVudCB0byBEZXBhcnRtZW50SGVhZC0tPjxnIGlkPSJsaW5rX0RlcGFydG1lbnRfRGVwYXJ0bWVudEhlYWQiPjxwYXRoIGNvZGVMaW5lPSIyNSIgZD0iTTQ0MS44OCwyNzguODYgQzM5Mi4wMywyODIuMDcgMzE2LjQ4LDI5My40NCAyNjMuNSwzMzEgQzI0Ny44OSwzNDIuMDcgMjM2LjY3LDM2MC43NiAyMjkuNjIsMzc1Ljc1ICIgZmlsbD0ibm9uZSIgaWQ9IkRlcGFydG1lbnQtRGVwYXJ0bWVudEhlYWQiIHN0eWxlPSJzdHJva2U6IzE4MTgxODtzdHJva2Utd2lkdGg6MS4wOyIvPjx0ZXh0IGZpbGw9IiMwMDAwMDAiIGZvbnQtZmFtaWx5PSJzYW5zLXNlcmlmIiBmb250LXNpemU9IjEzIiBsZW5ndGhBZGp1c3Q9InNwYWNpbmciIHRleHRMZW5ndGg9IjQ4IiB4PSIyNjQuNSIgeT0iMzQ0LjI4OTEiPm1hbmFnZXM8L3RleHQ+PHRleHQgZmlsbD0iIzAwMDAwMCIgZm9udC1mYW1pbHk9InNhbnMtc2VyaWYiIGZvbnQtc2l6ZT0iMTMiIGxlbmd0aEFkanVzdD0ic3BhY2luZyIgdGV4dExlbmd0aD0iNyIgeD0iNDI3LjEyODciIHk9IjI3Ny41NjA4Ij4xPC90ZXh0Pjx0ZXh0IGZpbGw9IiMwMDAwMDAiIGZvbnQtZmFtaWx5PSJzYW5zLXNlcmlmIiBmb250LXNpemU9IjEzIiBsZW5ndGhBZGp1c3Q9InNwYWNpbmciIHRleHRMZW5ndGg9IjciIHg9IjIyNC4yMDA2IiB5PSIzNjYuNTE5MiI+MTwvdGV4dD48L2c+PCEtLWxpbmsgRGVwYXJ0bWVudCB0byBQcm9mZXNzb3ItLT48ZyBpZD0ibGlua19EZXBhcnRtZW50X1Byb2Zlc3NvciI+PHBhdGggY29kZUxpbmU9IjI2IiBkPSJNNDc4LjQ2LDMwMS4wMiBDNDY2Ljg4LDMyMC4yIDQ1MS44MywzNDguNjkgNDQ1LjUsMzc2IEM0MzIuNzcsNDMwLjk1IDQ0Ny40Myw0OTcuNCA0NTcuMTksNTMxLjgxICIgZmlsbD0ibm9uZSIgaWQ9IkRlcGFydG1lbnQtUHJvZmVzc29yIiBzdHlsZT0ic3Ryb2tlOiMxODE4MTg7c3Ryb2tlLXdpZHRoOjEuMDsiLz48dGV4dCBmaWxsPSIjMDAwMDAwIiBmb250LWZhbWlseT0ic2Fucy1zZXJpZiIgZm9udC1zaXplPSIxMyIgbGVuZ3RoQWRqdXN0PSJzcGFjaW5nIiB0ZXh0TGVuZ3RoPSI0NyIgeD0iNDQ2LjUiIHk9IjQwNS43ODkxIj5lbXBsb3lzPC90ZXh0Pjx0ZXh0IGZpbGw9IiMwMDAwMDAiIGZvbnQtZmFtaWx5PSJzYW5zLXNlcmlmIiBmb250LXNpemU9IjEzIiBsZW5ndGhBZGp1c3Q9InNwYWNpbmciIHRleHRMZW5ndGg9IjciIHg9IjQ2Ni43MDkxIiB5PSIzMjEuMjQ2OSI+MTwvdGV4dD48dGV4dCBmaWxsPSIjMDAwMDAwIiBmb250LWZhbWlseT0ic2Fucy1zZXJpZiIgZm9udC1zaXplPSIxMyIgbGVuZ3RoQWRqdXN0PSJzcGFjaW5nIiB0ZXh0TGVuZ3RoPSIyNSIgeD0iNDI2LjM3MDgiIHk9IjUyMi4yMTgxIj4xLi4qPC90ZXh0PjwvZz48IS0tbGluayBEZXBhcnRtZW50IHRvIFRlYWNoaW5nQXNzaXN0YW50LS0+PGcgaWQ9ImxpbmtfRGVwYXJ0bWVudF9UZWFjaGluZ0Fzc2lzdGFudCI+PHBhdGggY29kZUxpbmU9IjI3IiBkPSJNNTM4LjI2LDMwMS4wNiBDNTY3LjI4LDMxOC4xMyA2MDMuNzcsMzQzLjk1IDYyNi41LDM3NiBDNjQzLjE2LDM5OS40OSA2NTEuMDQsNDMyLjE2IDY1NC42NSw0NTMuOTEgIiBmaWxsPSJub25lIiBpZD0iRGVwYXJ0bWVudC1UZWFjaGluZ0Fzc2lzdGFudCIgc3R5bGU9InN0cm9rZTojMTgxODE4O3N0cm9rZS13aWR0aDoxLjA7Ii8+PHRleHQgZmlsbD0iIzAwMDAwMCIgZm9udC1mYW1pbHk9InNhbnMtc2VyaWYiIGZvbnQtc2l6ZT0iMTMiIGxlbmd0aEFkanVzdD0ic3BhY2luZyIgdGV4dExlbmd0aD0iNDciIHg9IjYwMC41IiB5PSIzNDQuMjg5MSI+ZW1wbG95czwvdGV4dD48dGV4dCBmaWxsPSIjMDAwMDAwIiBmb250LWZhbWlseT0ic2Fucy1zZXJpZiIgZm9udC1zaXplPSIxMyIgbGVuZ3RoQWRqdXN0PSJzcGFjaW5nIiB0ZXh0TGVuZ3RoPSI3IiB4PSI1NDEuODMyOSIgeT0iMzIxLjI5NzIiPjE8L3RleHQ+PHRleHQgZmlsbD0iIzAwMDAwMCIgZm9udC1mYW1pbHk9InNhbnMtc2VyaWYiIGZvbnQtc2l6ZT0iMTMiIGxlbmd0aEFkanVzdD0ic3BhY2luZyIgdGV4dExlbmd0aD0iMjUiIHg9IjYyNS4xNDA5IiB5PSI0NDQuMzQ3NSI+MC4uKjwvdGV4dD48L2c+PCEtLWxpbmsgRGVwYXJ0bWVudCB0byBTY2hvb2xDYXRhbG9nLS0+PGcgaWQ9ImxpbmtfRGVwYXJ0bWVudF9TY2hvb2xDYXRhbG9nIj48cGF0aCBjb2RlTGluZT0iMjgiIGQ9Ik01NDUuMjcsMjk2LjA4IEM1NTEuMDUsMjk3Ljg1IDU1Ni44OCwyOTkuNTMgNTYyLjUsMzAxIEM2MzEuMjQsMzE4Ljk0IDY1OC4wOSwyOTUuMjkgNzE5LjUsMzMxIEM3MzguMDEsMzQxLjc2IDc1My40MiwzNjAuNjggNzYzLjY5LDM3NS44NCAiIGZpbGw9Im5vbmUiIGlkPSJEZXBhcnRtZW50LVNjaG9vbENhdGFsb2ciIHN0eWxlPSJzdHJva2U6IzE4MTgxODtzdHJva2Utd2lkdGg6MS4wOyIvPjx0ZXh0IGZpbGw9IiMwMDAwMDAiIGZvbnQtZmFtaWx5PSJzYW5zLXNlcmlmIiBmb250LXNpemU9IjEzIiBsZW5ndGhBZGp1c3Q9InNwYWNpbmciIHRleHRMZW5ndGg9IjU5IiB4PSI3NDAuNSIgeT0iMzQ0LjI4OTEiPmxpc3RlZF9pbjwvdGV4dD48dGV4dCBmaWxsPSIjMDAwMDAwIiBmb250LWZhbWlseT0ic2Fucy1zZXJpZiIgZm9udC1zaXplPSIxMyIgbGVuZ3RoQWRqdXN0PSJzcGFjaW5nIiB0ZXh0TGVuZ3RoPSIyNSIgeD0iNTQ3LjYzMTEiIHk9IjI5OC43NDA1Ij4xLi4qPC90ZXh0Pjx0ZXh0IGZpbGw9IiMwMDAwMDAiIGZvbnQtZmFtaWx5PSJzYW5zLXNlcmlmIiBmb250LXNpemU9IjEzIiBsZW5ndGhBZGp1c3Q9InNwYWNpbmciIHRleHRMZW5ndGg9IjciIHg9Ijc1MS42MDUyIiB5PSIzNjYuMjU2OSI+MTwvdGV4dD48L2c+PCEtLXJldmVyc2UgbGluayBDb3Vyc2UgdG8gVW5kZXJncmFkdWF0ZUNvdXJzZS0tPjxnIGlkPSJsaW5rX0NvdXJzZV9VbmRlcmdyYWR1YXRlQ291cnNlIj48cGF0aCBjb2RlTGluZT0iMzEiIGQ9Ik00MTAuMDQwMiw2OTcuNTY5IEMzNDguMTcwMiw3MTcuNTM5IDI0MC40NSw3NTIuMjkgMTYxLjEyLDc3Ny44OSAiIGZpbGw9Im5vbmUiIGlkPSJDb3Vyc2UtYmFja3RvLVVuZGVyZ3JhZHVhdGVDb3Vyc2UiIHN0eWxlPSJzdHJva2U6IzE4MTgxODtzdHJva2Utd2lkdGg6MS4wOyIvPjxwb2x5Z29uIGZpbGw9Im5vbmUiIHBvaW50cz0iNDI3LjE3LDY5Mi4wNCw0MDguMTk3Miw2OTEuODU5MSw0MTEuODgzMiw3MDMuMjc5LDQyNy4xNyw2OTIuMDQiIHN0eWxlPSJzdHJva2U6IzE4MTgxODtzdHJva2Utd2lkdGg6MS4wOyIvPjwvZz48IS0tcmV2ZXJzZSBsaW5rIENvdXJzZSB0byBHcmFkdWF0ZUNvdXJzZS0tPjxnIGlkPSJsaW5rX0NvdXJzZV9HcmFkdWF0ZUNvdXJzZSI+PHBhdGggY29kZUxpbmU9IjMyIiBkPSJNNDEyLjcwNDEsNzEyLjY0MDYgQzM3OC42NTQxLDczNC4xMTA2IDM0My4zNyw3NTYuMzQgMzA5LjI2LDc3Ny44NCAiIGZpbGw9Im5vbmUiIGlkPSJDb3Vyc2UtYmFja3RvLUdyYWR1YXRlQ291cnNlIiBzdHlsZT0ic3Ryb2tlOiMxODE4MTg7c3Ryb2tlLXdpZHRoOjEuMDsiLz48cG9seWdvbiBmaWxsPSJub25lIiBwb2ludHM9IjQyNy45Myw3MDMuMDQsNDA5LjUwMzksNzA3LjU2NTMsNDE1LjkwNDMsNzE3LjcxNTksNDI3LjkzLDcwMy4wNCIgc3R5bGU9InN0cm9rZTojMTgxODE4O3N0cm9rZS13aWR0aDoxLjA7Ii8+PC9nPjwhLS1saW5rIERlcGFydG1lbnQgdG8gQ291cnNlLS0+PGcgaWQ9ImxpbmtfRGVwYXJ0bWVudF9Db3Vyc2UiPjxwYXRoIGNvZGVMaW5lPSIzNSIgZD0iTTQ3MS40LDMwMS4xOCBDNDYzLjU4LDMxMC4wOCA0NTUuMSwzMjAuNjEgNDQ4LjUsMzMxIEM0MTYuMzEsMzgxLjcxIDQwNS4yMywzOTUuMyAzOTIuNSw0NTQgQzM4MC42MSw1MDguODEgMzgwLjkyLDUyNy4wOCAzOTkuNSw1ODAgQzQwOS4zNyw2MDguMTMgNDI5LjEzLDYzNi4wNSA0NDQuMjgsNjU0Ljg1ICIgZmlsbD0ibm9uZSIgaWQ9IkRlcGFydG1lbnQtQ291cnNlIiBzdHlsZT0ic3Ryb2tlOiMxODE4MTg7c3Ryb2tlLXdpZHRoOjEuMDsiLz48dGV4dCBmaWxsPSIjMDAwMDAwIiBmb250LWZhbWlseT0ic2Fucy1zZXJpZiIgZm9udC1zaXplPSIxMyIgbGVuZ3RoQWRqdXN0PSJzcGFjaW5nIiB0ZXh0TGVuZ3RoPSI0MCIgeD0iMzkzLjUiIHk9IjQ4My43ODkxIj5vZmZlcnM8L3RleHQ+PHRleHQgZmlsbD0iIzAwMDAwMCIgZm9udC1mYW1pbHk9InNhbnMtc2VyaWYiIGZvbnQtc2l6ZT0iMTMiIGxlbmd0aEFkanVzdD0ic3BhY2luZyIgdGV4dExlbmd0aD0iNyIgeD0iNDU3Ljg0IiB5PSIzMjEuNDQ3OSI+MTwvdGV4dD48dGV4dCBmaWxsPSIjMDAwMDAwIiBmb250LWZhbWlseT0ic2Fucy1zZXJpZiIgZm9udC1zaXplPSIxMyIgbGVuZ3RoQWRqdXN0PSJzcGFjaW5nIiB0ZXh0TGVuZ3RoPSIyNSIgeD0iNDA5LjY2ODUiIHk9IjY0NS4yNjk5Ij4xLi4qPC90ZXh0PjwvZz48IS0tbGluayBQcm9mZXNzb3IgdG8gQ291cnNlLS0+PGcgaWQ9ImxpbmtfUHJvZmVzc29yX0NvdXJzZSI+PHBhdGggY29kZUxpbmU9IjM2IiBkPSJNNDY0LjUsNTgwLjA0IEM0NjQuNSw2MDEuNDQgNDY0LjUsNjMzLjEzIDQ2NC41LDY1NC42MyAiIGZpbGw9Im5vbmUiIGlkPSJQcm9mZXNzb3ItQ291cnNlIiBzdHlsZT0ic3Ryb2tlOiMxODE4MTg7c3Ryb2tlLXdpZHRoOjEuMDsiLz48dGV4dCBmaWxsPSIjMDAwMDAwIiBmb250LWZhbWlseT0ic2Fucy1zZXJpZiIgZm9udC1zaXplPSIxMyIgbGVuZ3RoQWRqdXN0PSJzcGFjaW5nIiB0ZXh0TGVuZ3RoPSI0OCIgeD0iNDY1LjUiIHk9IjYyMy4yODkxIj50ZWFjaGVzPC90ZXh0Pjx0ZXh0IGZpbGw9IiMwMDAwMDAiIGZvbnQtZmFtaWx5PSJzYW5zLXNlcmlmIiBmb250LXNpemU9IjEzIiBsZW5ndGhBZGp1c3Q9InNwYWNpbmciIHRleHRMZW5ndGg9IjciIHg9IjQ1Ni42MDMxIiB5PSI2MDAuMjcyMSI+MTwvdGV4dD48dGV4dCBmaWxsPSIjMDAwMDAwIiBmb250LWZhbWlseT0ic2Fucy1zZXJpZiIgZm9udC1zaXplPSIxMyIgbGVuZ3RoQWRqdXN0PSJzcGFjaW5nIiB0ZXh0TGVuZ3RoPSIyNSIgeD0iNDY4LjAxNTYiIHk9IjY0NS4zNjU0Ij4xLi4qPC90ZXh0PjwvZz48IS0tbGluayBUZWFjaGluZ0Fzc2lzdGFudCB0byBDb3Vyc2UtLT48ZyBpZD0ibGlua19UZWFjaGluZ0Fzc2lzdGFudF9Db3Vyc2UiPjxwYXRoIGNvZGVMaW5lPSIzNyIgZD0iTTYzNy4yNiw1MDIuMDcgQzYxMS4zNSw1MzEuMzIgNTY0LjczLDU4My4wMiA1MjIuNSw2MjUgQzUxMi4zNCw2MzUuMSA1MDAuNzYsNjQ1LjgzIDQ5MC42Myw2NTQuOTcgIiBmaWxsPSJub25lIiBpZD0iVGVhY2hpbmdBc3Npc3RhbnQtQ291cnNlIiBzdHlsZT0ic3Ryb2tlOiMxODE4MTg7c3Ryb2tlLXdpZHRoOjEuMDsiLz48dGV4dCBmaWxsPSIjMDAwMDAwIiBmb250LWZhbWlseT0ic2Fucy1zZXJpZiIgZm9udC1zaXplPSIxMyIgbGVuZ3RoQWRqdXN0PSJzcGFjaW5nIiB0ZXh0TGVuZ3RoPSI0NyIgeD0iNjEwLjUiIHk9IjU2MS43ODkxIj5hc3Npc3RzPC90ZXh0Pjx0ZXh0IGZpbGw9IiMwMDAwMDAiIGZvbnQtZmFtaWx5PSJzYW5zLXNlcmlmIiBmb250LXNpemU9IjEzIiBsZW5ndGhBZGp1c3Q9InNwYWNpbmciIHRleHRMZW5ndGg9IjI2IiB4PSI2MDIuNzQyMyIgeT0iNTIyLjMwOTciPjAuLjE8L3RleHQ+PHRleHQgZmlsbD0iIzAwMDAwMCIgZm9udC1mYW1pbHk9InNhbnMtc2VyaWYiIGZvbnQtc2l6ZT0iMTMiIGxlbmd0aEFkanVzdD0ic3BhY2luZyIgdGV4dExlbmd0aD0iMjUiIHg9IjUwMS45Nzc2IiB5PSI2NDUuNDI1MSI+MS4uKjwvdGV4dD48L2c+PCEtLWxpbmsgU3R1ZGVudCB0byBDb3Vyc2UtLT48ZyBpZD0ibGlua19TdHVkZW50X0NvdXJzZSI+PHBhdGggY29kZUxpbmU9IjM4IiBkPSJNNzE5Ljc4LDU3OC42NSBDNjkyLjQxLDU5Mi43OCA2NTUuMjksNjExLjEgNjIxLjUsNjI1IEM1ODEuMzMsNjQxLjUzIDUzMy45Miw2NTcgNTAxLjc5LDY2Ni45MSAiIGZpbGw9Im5vbmUiIGlkPSJTdHVkZW50LUNvdXJzZSIgc3R5bGU9InN0cm9rZTojMTgxODE4O3N0cm9rZS13aWR0aDoxLjA7Ii8+PHRleHQgZmlsbD0iIzAwMDAwMCIgZm9udC1mYW1pbHk9InNhbnMtc2VyaWYiIGZvbnQtc2l6ZT0iMTMiIGxlbmd0aEFkanVzdD0ic3BhY2luZyIgdGV4dExlbmd0aD0iNjciIHg9IjY1NC41IiB5PSI2MjMuMjg5MSI+ZW5yb2xsc19pbjwvdGV4dD48dGV4dCBmaWxsPSIjMDAwMDAwIiBmb250LWZhbWlseT0ic2Fucy1zZXJpZiIgZm9udC1zaXplPSIxMyIgbGVuZ3RoQWRqdXN0PSJzcGFjaW5nIiB0ZXh0TGVuZ3RoPSIyNSIgeD0iNjg2Ljk2MzMiIHk9IjU4MC4zNzgyIj4xLi4qPC90ZXh0Pjx0ZXh0IGZpbGw9IiMwMDAwMDAiIGZvbnQtZmFtaWx5PSJzYW5zLXNlcmlmIiBmb250LXNpemU9IjEzIiBsZW5ndGhBZGp1c3Q9InNwYWNpbmciIHRleHRMZW5ndGg9IjI1IiB4PSI1MDkuNDE0MSIgeT0iNjc4LjQxMzEiPjEuLio8L3RleHQ+PC9nPjwhLS1saW5rIENvdXJzZSB0byBRdWl6LS0+PGcgaWQ9ImxpbmtfQ291cnNlX1F1aXoiPjxwYXRoIGNvZGVMaW5lPSI0MSIgZD0iTTQzNy44Nyw3MDMuMTIgQzQyOS41MSw3MTEuNyA0MjEuMDMsNzIyLjA0IDQxNS41LDczMyBDNDA4LjQ2LDc0Ni45NSA0MDUuMjIsNzY0LjI3IDQwMy43Myw3NzcuOTMgIiBmaWxsPSJub25lIiBpZD0iQ291cnNlLVF1aXoiIHN0eWxlPSJzdHJva2U6IzE4MTgxODtzdHJva2Utd2lkdGg6MS4wOyIvPjx0ZXh0IGZpbGw9IiMwMDAwMDAiIGZvbnQtZmFtaWx5PSJzYW5zLXNlcmlmIiBmb250LXNpemU9IjEzIiBsZW5ndGhBZGp1c3Q9InNwYWNpbmciIHRleHRMZW5ndGg9IjU0IiB4PSI0MTYuNSIgeT0iNzQ2LjI4OTEiPmluY2x1ZGVzPC90ZXh0Pjx0ZXh0IGZpbGw9IiMwMDAwMDAiIGZvbnQtZmFtaWx5PSJzYW5zLXNlcmlmIiBmb250LXNpemU9IjEzIiBsZW5ndGhBZGp1c3Q9InNwYWNpbmciIHRleHRMZW5ndGg9IjciIHg9IjQyMy4xNDkyIiB5PSI3MjMuMzcyNiI+MTwvdGV4dD48dGV4dCBmaWxsPSIjMDAwMDAwIiBmb250LWZhbWlseT0ic2Fucy1zZXJpZiIgZm9udC1zaXplPSIxMyIgbGVuZ3RoQWRqdXN0PSJzcGFjaW5nIiB0ZXh0TGVuZ3RoPSIyNSIgeD0iMzc1LjQxOTQiIHk9Ijc2OC4zNzM0Ij4wLi4qPC90ZXh0PjwvZz48IS0tbGluayBDb3Vyc2UgdG8gRXhhbS0tPjxnIGlkPSJsaW5rX0NvdXJzZV9FeGFtIj48cGF0aCBjb2RlTGluZT0iNDIiIGQ9Ik00NzAuOTgsNzAzLjA0IEM0NzYuOTksNzI0LjQ0IDQ4NS44OSw3NTYuMTMgNDkxLjkzLDc3Ny42MyAiIGZpbGw9Im5vbmUiIGlkPSJDb3Vyc2UtRXhhbSIgc3R5bGU9InN0cm9rZTojMTgxODE4O3N0cm9rZS13aWR0aDoxLjA7Ii8+PHRleHQgZmlsbD0iIzAwMDAwMCIgZm9udC1mYW1pbHk9InNhbnMtc2VyaWYiIGZvbnQtc2l6ZT0iMTMiIGxlbmd0aEFkanVzdD0ic3BhY2luZyIgdGV4dExlbmd0aD0iNTQiIHg9IjQ4NS41IiB5PSI3NDYuMjg5MSI+aW5jbHVkZXM8L3RleHQ+PHRleHQgZmlsbD0iIzAwMDAwMCIgZm9udC1mYW1pbHk9InNhbnMtc2VyaWYiIGZvbnQtc2l6ZT0iMTMiIGxlbmd0aEFkanVzdD0ic3BhY2luZyIgdGV4dExlbmd0aD0iNyIgeD0iNDY0Ljc0MzYiIHk9IjcyMy4yNzIxIj4xPC90ZXh0Pjx0ZXh0IGZpbGw9IiMwMDAwMDAiIGZvbnQtZmFtaWx5PSJzYW5zLXNlcmlmIiBmb250LXNpemU9IjEzIiBsZW5ndGhBZGp1c3Q9InNwYWNpbmciIHRleHRMZW5ndGg9IjI1IiB4PSI0NjEuNTY2NiIgeT0iNzY4LjM2NTQiPjEuLio8L3RleHQ+PC9nPjwhLS1saW5rIEJ1aWxkaW5nIHRvIENsYXNzcm9vbS0tPjxnIGlkPSJsaW5rX0J1aWxkaW5nX0NsYXNzcm9vbSI+PHBhdGggY29kZUxpbmU9IjQ1IiBkPSJNNjc2LjgzLDcwMy4wNCBDNjcwLjY1LDcyNC40NCA2NjEuNDgsNzU2LjEzIDY1NS4yNiw3NzcuNjMgIiBmaWxsPSJub25lIiBpZD0iQnVpbGRpbmctQ2xhc3Nyb29tIiBzdHlsZT0ic3Ryb2tlOiMxODE4MTg7c3Ryb2tlLXdpZHRoOjEuMDsiLz48dGV4dCBmaWxsPSIjMDAwMDAwIiBmb250LWZhbWlseT0ic2Fucy1zZXJpZiIgZm9udC1zaXplPSIxMyIgbGVuZ3RoQWRqdXN0PSJzcGFjaW5nIiB0ZXh0TGVuZ3RoPSI1NCIgeD0iNjY5LjUiIHk9Ijc0Ni4yODkxIj5jb250YWluczwvdGV4dD48dGV4dCBmaWxsPSIjMDAwMDAwIiBmb250LWZhbWlseT0ic2Fucy1zZXJpZiIgZm9udC1zaXplPSIxMyIgbGVuZ3RoQWRqdXN0PSJzcGFjaW5nIiB0ZXh0TGVuZ3RoPSI3IiB4PSI2NjcuMjIzOSIgeT0iNzIzLjI3MjEiPjE8L3RleHQ+PHRleHQgZmlsbD0iIzAwMDAwMCIgZm9udC1mYW1pbHk9InNhbnMtc2VyaWYiIGZvbnQtc2l6ZT0iMTMiIGxlbmd0aEFkanVzdD0ic3BhY2luZyIgdGV4dExlbmd0aD0iMjUiIHg9IjYyOC42NDU2IiB5PSI3NjguMzY1NCI+MS4uKjwvdGV4dD48L2c+PCEtLWxpbmsgQ291cnNlIHRvIENsYXNzcm9vbS0tPjxnIGlkPSJsaW5rX0NvdXJzZV9DbGFzc3Jvb20iPjxwYXRoIGNvZGVMaW5lPSI0NiIgZD0iTTUwMS44OSw3MDMuMjEgQzUxNi41LDcxMi4zOCA1MzMuMzYsNzIzLjA4IDU0OC41LDczMyBDNTcwLjgsNzQ3LjYxIDU5NS41OSw3NjQuNDYgNjE0LjksNzc3LjczICIgZmlsbD0ibm9uZSIgaWQ9IkNvdXJzZS1DbGFzc3Jvb20iIHN0eWxlPSJzdHJva2U6IzE4MTgxODtzdHJva2Utd2lkdGg6MS4wOyIvPjx0ZXh0IGZpbGw9IiMwMDAwMDAiIGZvbnQtZmFtaWx5PSJzYW5zLXNlcmlmIiBmb250LXNpemU9IjEzIiBsZW5ndGhBZGp1c3Q9InNwYWNpbmciIHRleHRMZW5ndGg9IjQ3IiB4PSI1NzIuNSIgeT0iNzQ2LjI4OTEiPmhlbGRfaW48L3RleHQ+PHRleHQgZmlsbD0iIzAwMDAwMCIgZm9udC1mYW1pbHk9InNhbnMtc2VyaWYiIGZvbnQtc2l6ZT0iMTMiIGxlbmd0aEFkanVzdD0ic3BhY2luZyIgdGV4dExlbmd0aD0iNyIgeD0iNTAzLjE1MDciIHk9IjcyMy4wOTYiPjE8L3RleHQ+PHRleHQgZmlsbD0iIzAwMDAwMCIgZm9udC1mYW1pbHk9InNhbnMtc2VyaWYiIGZvbnQtc2l6ZT0iMTMiIGxlbmd0aEFkanVzdD0ic3BhY2luZyIgdGV4dExlbmd0aD0iNyIgeD0iNTk3LjQ2NTYiIHk9Ijc2OC40OTM1Ij4xPC90ZXh0PjwvZz48IS0tbGluayBDb21taXR0ZWUgdG8gUHJvZmVzc29yLS0+PGcgaWQ9ImxpbmtfQ29tbWl0dGVlX1Byb2Zlc3NvciI+PHBhdGggY29kZUxpbmU9IjQ5IiBkPSJNNTE4LjY3LDQyNC4yNiBDNTA3LjQsNDMyLjM0IDQ5Ni4yMSw0NDIuMzUgNDg4LjUsNDU0IEM0NzIuODgsNDc3LjU5IDQ2Ny4zOSw1MTAuMjQgNDY1LjQ4LDUzMS45NSAiIGZpbGw9Im5vbmUiIGlkPSJDb21taXR0ZWUtUHJvZmVzc29yIiBzdHlsZT0ic3Ryb2tlOiMxODE4MTg7c3Ryb2tlLXdpZHRoOjEuMDsiLz48dGV4dCBmaWxsPSIjMDAwMDAwIiBmb250LWZhbWlseT0ic2Fucy1zZXJpZiIgZm9udC1zaXplPSIxMyIgbGVuZ3RoQWRqdXN0PSJzcGFjaW5nIiB0ZXh0TGVuZ3RoPSI3NCIgeD0iNDg5LjUiIHk9IjQ4My43ODkxIj5jb25zaXN0c19vZjwvdGV4dD48dGV4dCBmaWxsPSIjMDAwMDAwIiBmb250LWZhbWlseT0ic2Fucy1zZXJpZiIgZm9udC1zaXplPSIxMyIgbGVuZ3RoQWRqdXN0PSJzcGFjaW5nIiB0ZXh0TGVuZ3RoPSI3IiB4PSI1MDAuNjIwOCIgeT0iNDQ0LjE1ODIiPjE8L3RleHQ+PHRleHQgZmlsbD0iIzAwMDAwMCIgZm9udC1mYW1pbHk9InNhbnMtc2VyaWYiIGZvbnQtc2l6ZT0iMTMiIGxlbmd0aEFkanVzdD0ic3BhY2luZyIgdGV4dExlbmd0aD0iMjUiIHg9IjQ2OS40Mzk4IiB5PSI1MjIuMzk5MyI+My4uKjwvdGV4dD48L2c+PCEtLWxpbmsgRGVwYXJ0bWVudCB0byBDb21taXR0ZWUtLT48ZyBpZD0ibGlua19EZXBhcnRtZW50X0NvbW1pdHRlZSI+PHBhdGggY29kZUxpbmU9IjUwIiBkPSJNNTA2LjI2LDMwMS4wNCBDNTE4LjExLDMyMi40NCA1MzUuNjYsMzU0LjEzIDU0Ny41NiwzNzUuNjMgIiBmaWxsPSJub25lIiBpZD0iRGVwYXJ0bWVudC1Db21taXR0ZWUiIHN0eWxlPSJzdHJva2U6IzE4MTgxODtzdHJva2Utd2lkdGg6MS4wOyIvPjx0ZXh0IGZpbGw9IiMwMDAwMDAiIGZvbnQtZmFtaWx5PSJzYW5zLXNlcmlmIiBmb250LXNpemU9IjEzIiBsZW5ndGhBZGp1c3Q9InNwYWNpbmciIHRleHRMZW5ndGg9IjIxIiB4PSI1MzIuNSIgeT0iMzQ0LjI4OTEiPmhhczwvdGV4dD48dGV4dCBmaWxsPSIjMDAwMDAwIiBmb250LWZhbWlseT0ic2Fucy1zZXJpZiIgZm9udC1zaXplPSIxMyIgbGVuZ3RoQWRqdXN0PSJzcGFjaW5nIiB0ZXh0TGVuZ3RoPSI3IiB4PSI1MDEuNjMyOSIgeT0iMzIxLjI3MjEiPjE8L3RleHQ+PHRleHQgZmlsbD0iIzAwMDAwMCIgZm9udC1mYW1pbHk9InNhbnMtc2VyaWYiIGZvbnQtc2l6ZT0iMTMiIGxlbmd0aEFkanVzdD0ic3BhY2luZyIgdGV4dExlbmd0aD0iMjUiIHg9IjUxNS40MDUiIHk9IjM2Ni4zNjU0Ij4xLi4qPC90ZXh0PjwvZz48IS0tbGluayBTdHVkZW50IHRvIERlZ3JlZS0tPjxnIGlkPSJsaW5rX1N0dWRlbnRfRGVncmVlIj48cGF0aCBjb2RlTGluZT0iNTMiIGQ9Ik03NjcuOTMsNTgwLjA0IEM3NzQuODIsNjAxLjQ0IDc4NS4wNCw2MzMuMTMgNzkxLjk3LDY1NC42MyAiIGZpbGw9Im5vbmUiIGlkPSJTdHVkZW50LURlZ3JlZSIgc3R5bGU9InN0cm9rZTojMTgxODE4O3N0cm9rZS13aWR0aDoxLjA7Ii8+PHRleHQgZmlsbD0iIzAwMDAwMCIgZm9udC1mYW1pbHk9InNhbnMtc2VyaWYiIGZvbnQtc2l6ZT0iMTMiIGxlbmd0aEFkanVzdD0ic3BhY2luZyIgdGV4dExlbmd0aD0iNDIiIHg9Ijc4My41IiB5PSI2MjMuMjg5MSI+cHVyc3VlPC90ZXh0PjwvZz48IS0tU1JDPVtWTEY5UVlHbjNCdE5MdlktMTBPSTlrSE12RDlQY0VJTThTYXYyNWpMOVYzSXNBdW1GU3A3WnlmanJ6UkJmSFZ2d0tid0p4ZUlKellHSEk0clg4MlhJal9ZcXo4dC1hMW5kbUZsaWRERVlfcGwyTlZXZXE0UmZtWk91elNOMTVNWVJ6dXI2OEJwOVYyMTgza294Sk80Mlg0Y2hhVk4tdTFZUjRNWFJwc2U3WThVZGxCQmhyRjF6elloTUwtX1VfZ1JWcHhfMExGMjNwcmZuUk43YWlFZFR5dkNGSFgzQ1VCT25hNjBIdVlXTkppRXNsZTFLTHFMNUpyZ1lFSGl3NldOZ2FiNWlSZFRZRWpoX2hndi1SNGZRalAyRVhrMVJBWG9QMGNSb05tMWtaYzhObWkzNWJnc1M5UXMwMnJTa0duRnZJVjdRZTVjZnp0LTlGWGQwWC14VUlPZmVOREYycjR2R05DZ2dZLW9Xd0lsamFERkoyTk5ra081a1ZfN0RBVk1PX3ctTVhCY3RLZkdRNFlrSUNfQWFEYmd1UGc2dFFtY01TeFd1WTA1MnRpaW9RM0x3SG44NjNPdGgtelNmb0tJaE5UUVhvbkkzZ1RISzlOOWJ6T0NEeTI5UEFMY3loMDY3VlpKVFNuMHBGdE14R0Q5cTI5NHR5bE9Vd3A2a3JjREZmeEZSNF9OUFBRbTNkS25VZ2lDTVB4VWlubFZXdGxiejRoZ3RUNHdTZjZhcnZUaEJYYk5ZQldTZjk2b2xBRkMzQ3Y3TjhpVGp6bFpWbTAwXS0tPjwvZz48L3N2Zz4=;" vertex="1" parent="1">
            <mxGeometry x="83" y="785" width="536.24" height="528" as="geometry" />
          </mxCell>
        </UserObject>
      </root>
    </mxGraphModel>
  </diagram>
</mxfile>
